#N canvas 1003 146 624 576 10;
#X obj 20 222 osc~;
#X floatatom 20 142 5 0 0 0 - - -, f 5;
#X obj 20 202 +~;
#X obj 38 161 osc~;
#X obj 38 181 *~;
#X obj 20 304 outlet~;
#X obj 120 226 vline~;
#X obj 20 284 *~;
#X obj 120 83 bng 15 250 50 0 empty empty empty 17 7 0 10 -262144 -1
-1;
#X obj 158 147 vline~;
#X obj 77 164 *~;
#X obj 20 51 unpack 0 0;
#X obj 20 22 inlet note;
#X obj 120 174 pack f f, f 17;
#X obj 158 98 pack f f, f 17;
#X obj 149 22 inlet decay;
#X obj 149 62 send decay_;
#X obj 257 75 receive decay_;
#X obj 219 150 receive decay_;
#X obj 20 254 *~;
#X obj 78 254 / 1000;
#X obj 78 276 / 2;
#X obj 78 298 + 0.5;
#X obj 149 42 * 3;
#X obj 76 185 osc~ 2;
#X obj 76 212 *~ 1;
#X msg 158 123 1 2 \, 0 \$2 2;
#X msg 120 199 1 2 \, 0 \$2 2;
#X connect 0 0 19 0;
#X connect 1 0 2 0;
#X connect 1 0 3 0;
#X connect 2 0 0 0;
#X connect 3 0 4 0;
#X connect 4 0 2 1;
#X connect 6 0 7 1;
#X connect 7 0 5 0;
#X connect 8 0 13 0;
#X connect 8 0 14 0;
#X connect 9 0 10 1;
#X connect 10 0 4 1;
#X connect 11 0 1 0;
#X connect 11 1 10 0;
#X connect 11 1 20 0;
#X connect 12 0 11 0;
#X connect 12 0 8 0;
#X connect 13 0 27 0;
#X connect 14 0 26 0;
#X connect 15 0 23 0;
#X connect 17 0 14 1;
#X connect 18 0 13 1;
#X connect 19 0 7 0;
#X connect 20 0 21 0;
#X connect 21 0 22 0;
#X connect 22 0 19 1;
#X connect 23 0 16 0;
#X connect 24 0 25 0;
#X connect 25 0 2 1;
#X connect 26 0 9 0;
#X connect 27 0 6 0;
