#N canvas 0 22 1440 852 10;
#X msg 383 638 stop;
#X msg 693 589 stop;
#X obj 901 748 freeverb~;
#X msg 999 334 roomsize \$1;
#X msg 999 379 damping \$1;
#X msg 1001 431 width \$1;
#X msg 1001 475 wet \$1;
#X msg 1001 519 dry \$1;
#X msg 1023 561 print;
#X msg 1027 603 bypass \$1;
#X obj 1027 585 tgl 15 0 empty empty empty 0 -6 0 8 -262144 -1 -1 1
1;
#X obj 1013 496 hsl 60 18 0 1 0 1 empty empty dry 2 9 1 12 -225271
-1 -1 600 0;
#X obj 1013 452 hsl 60 18 0 1 0 1 empty empty wet 2 9 1 12 -225271
-1 -1 3000 0;
#X obj 1011 400 hsl 60 18 0 1 0 1 empty empty width 2 9 1 12 -262131
-1 -1 1000 0;
#X obj 1011 356 hsl 60 18 0 2 0 1 empty empty damping 2 9 1 12 -261689
-1 -1 400 0;
#X obj 1016 310 hsl 60 18 0.11 1.1 0 1 empty empty roomsize 2 9 1 12
-261689 -1 -1 3900 0;
#X floatatom 981 315 3 0 0 0 - - -;
#X floatatom 981 360 3 0 0 0 - - -;
#X floatatom 981 405 3 0 0 0 - - -;
#X floatatom 983 456 3 0 0 0 - - -;
#X floatatom 983 500 3 0 0 0 - - -;
#X obj 1049 729 writesf~ 2;
#X msg 1316 709 start;
#X msg 1171 659 stop;
#X msg 1130 659 print;
#X text 1160 704 1;
#X text 1299 705 2;
#X obj 1097 854 delread~ delayRight 1500;
#X obj 1099 878 delread~ delayLeft 1000;
#X text 1169 679 CAMBIAR NOMBRE FICHERO CADA NUEVA REC.;
#X obj 906 881 dac~ 1 2;
#X obj 378 243 threshold~ 1 3000 0.1 1000;
#X obj 378 266 bng 15 250 50 0 empty empty empty 17 7 0 10 -262144
-1 -1;
#X floatatom 378 333 5 0 0 0 - - -;
#X obj 378 219 *~ 5;
#X obj 738 281 threshold~ 1 3000 0.1 1000;
#X obj 738 304 bng 15 250 50 0 empty empty empty 17 7 0 10 -262144
-1 -1;
#X floatatom 738 371 5 0 0 0 - - -;
#X obj 738 252 *~ 5.5;
#X obj 691 124 adc~;
#N canvas 0 22 796 453 (subpatch) 0;
#X array array1 100 float 3;
#A 0 1.76155 1.32322 1.22635 1.29056 0.484652 -1.59721 -3.54054 -4.07611
-3.43512 -2.72276 -2.44023 -2.28627 -2.19601 -1.88271 -1.20712 -0.662439
-0.284308 0.271347 1.13092 2.32287 3.3521 3.42608 2.8192 2.2231 1.71709
1.52427 1.54771 0.932126 -0.250778 -1.02055 -1.24046 -1.28292 -1.3974
-2.0322 -2.90736 -2.9796 -2.40625 -2.01209 -1.73015 -1.43548 -1.23608
-1.18861 -1.39604 -0.654908 2.02881 4.05151 3.75598 3.18248 2.99159
2.63983 2.36997 2.08556 1.64279 1.22022 1.00259 1.01617 1.3111 1.09587
-0.920091 -3.45559 -4.28923 -3.76723 -3.16377 -2.75409 -0.320547 0.089477
0.565345 1.15112 1.80862 2.43607 2.90325 3.07139 2.90972 2.55518 2.06942
1.44734 0.842608 0.380431 0.0273628 -0.28479 -0.633681 -1.06708 -1.55754
-2.03205 -2.40477 -2.58221 -2.51616 -2.2902 -2.03053 -1.75879 -1.37508
-0.776932 -0.0752735 0.484897 0.826112 1.06823 1.37503 1.80468 2.26005
2.59548;
#X coords 0 1 99 -1 200 140 1;
#X restore 957 140 graph;
#X obj 849 229 tabwrite~ array1;
#X obj 855 185 bng 15 250 50 0 empty empty empty 17 7 0 10 -262144
-1 -1;
#X text 915 207 msec.;
#X obj 855 206 metro 160;
#X obj 1107 815 delwrite~ delayLeft 3000;
#X obj 1105 790 delwrite~ delayRight 5000;
#X msg 119 624 stop;
#X obj 203 243 threshold~ 1 3000 0.1 1000;
#X obj 203 266 bng 15 250 50 0 empty empty empty 17 7 0 10 -262144
-1 -1;
#X floatatom 203 333 5 0 0 0 - - -;
#X obj 198 780 dac~ 1 2;
#X obj 203 214 *~ 1.5;
#X obj 791 188 *~ 5.5;
#X obj 170 706 *~ 2.5;
#X obj 739 327 metro 610000;
#X obj 791 153 dsp;
#X obj 791 123 tgl 15 0 empty empty empty 17 7 0 10 -262144 -1 -1 1
1;
#X obj 791 89 loadbang;
#X obj 204 289 metro 20000;
#X msg 205 445 open c8.wav \, 1;
#X msg 199 417 open c4.wav \, 1;
#X msg 188 392 open Bar-voces.wav \, 1;
#X obj 203 311 random 3;
#X obj 203 356 sel 0 1 2;
#X obj 165 661 readsf~ 3;
#X text 251 332 menos 20 sec;
#X text 443 335 menos 52 sec;
#X obj 379 289 metro 52000;
#X msg 376 421 open c1.wav \, 1;
#X msg 393 448 open c2.wav \, 1;
#X msg 407 473 open c3.wav \, 1;
#X msg 423 503 open c6.wav \, 1;
#X msg 443 541 open c7.wav \, 1;
#X msg 455 571 open galleta.wav \, 1;
#X msg 475 609 open m1.wav \, 1;
#X msg 517 641 open Silla-pasos.wav \, 1;
#X obj 377 362 sel 0 1 2 3 4 5 6 7;
#X obj 452 714 readsf~ 8;
#X obj 379 310 random 8;
#X text 775 371 menos 01:35 sec.;
#X obj 738 349 random 3;
#X obj 738 394 sel 0 1 2;
#X obj 734 627 readsf~ 3;
#X msg 718 436 open c5.wav \, 1;
#X msg 735 463 open m2.wav \, 1;
#X msg 747 498 open m3.wav \, 1;
#X text 1123 482 [m.i.r] \, Oliveros et al. 2015/18.;
#X msg 1178 707 open Madrid.wav;
#X obj 642 227 fiddle~;
#X floatatom 641 289 5 0 0 0 - - -;
#X obj 642 256 moses 60;
#X floatatom 686 286 5 0 0 0 - - -;
#X connect 0 0 78 0;
#X connect 1 0 83 0;
#X connect 2 0 21 0;
#X connect 2 0 30 0;
#X connect 2 0 45 0;
#X connect 2 1 21 1;
#X connect 2 1 30 1;
#X connect 2 1 46 0;
#X connect 3 0 2 0;
#X connect 4 0 2 0;
#X connect 5 0 2 0;
#X connect 6 0 2 0;
#X connect 7 0 2 0;
#X connect 8 0 2 0;
#X connect 9 0 2 0;
#X connect 10 0 9 0;
#X connect 11 0 7 0;
#X connect 11 0 20 0;
#X connect 12 0 6 0;
#X connect 12 0 19 0;
#X connect 13 0 5 0;
#X connect 13 0 18 0;
#X connect 14 0 4 0;
#X connect 14 0 17 0;
#X connect 15 0 3 0;
#X connect 15 0 16 0;
#X connect 22 0 21 0;
#X connect 23 0 21 0;
#X connect 24 0 21 0;
#X connect 27 0 21 1;
#X connect 27 0 30 1;
#X connect 28 0 21 0;
#X connect 28 0 30 0;
#X connect 31 0 32 0;
#X connect 32 0 68 0;
#X connect 33 0 77 0;
#X connect 34 0 31 0;
#X connect 35 0 36 0;
#X connect 36 0 55 0;
#X connect 37 0 82 0;
#X connect 38 0 35 0;
#X connect 39 0 38 0;
#X connect 39 0 34 0;
#X connect 39 0 52 0;
#X connect 39 0 53 0;
#X connect 39 0 89 0;
#X connect 42 0 44 0;
#X connect 44 0 41 0;
#X connect 47 0 65 0;
#X connect 48 0 49 0;
#X connect 49 0 59 0;
#X connect 50 0 64 0;
#X connect 52 0 48 0;
#X connect 53 0 41 0;
#X connect 54 0 51 0;
#X connect 54 0 51 1;
#X connect 55 0 81 0;
#X connect 57 0 56 0;
#X connect 57 0 42 0;
#X connect 58 0 57 0;
#X connect 59 0 63 0;
#X connect 60 0 65 0;
#X connect 61 0 65 0;
#X connect 62 0 65 0;
#X connect 63 0 50 0;
#X connect 64 0 62 0;
#X connect 64 1 61 0;
#X connect 64 2 60 0;
#X connect 65 0 2 0;
#X connect 65 0 2 1;
#X connect 65 1 2 0;
#X connect 65 1 2 1;
#X connect 65 2 2 0;
#X connect 65 2 2 1;
#X connect 65 3 2 0;
#X connect 65 3 2 1;
#X connect 68 0 79 0;
#X connect 69 0 78 0;
#X connect 70 0 78 0;
#X connect 71 0 78 0;
#X connect 72 0 78 0;
#X connect 73 0 78 0;
#X connect 74 0 78 0;
#X connect 75 0 78 0;
#X connect 76 0 78 0;
#X connect 77 0 69 0;
#X connect 77 1 70 0;
#X connect 77 2 71 0;
#X connect 77 3 72 0;
#X connect 77 4 73 0;
#X connect 77 5 74 0;
#X connect 77 6 75 0;
#X connect 77 7 76 0;
#X connect 78 0 2 0;
#X connect 78 0 2 1;
#X connect 78 1 2 1;
#X connect 78 1 2 0;
#X connect 78 2 2 1;
#X connect 78 2 2 0;
#X connect 78 3 2 1;
#X connect 78 3 2 0;
#X connect 78 4 2 1;
#X connect 78 4 2 0;
#X connect 78 5 2 1;
#X connect 78 5 2 0;
#X connect 78 6 2 0;
#X connect 78 6 2 1;
#X connect 78 7 2 1;
#X connect 78 7 2 0;
#X connect 79 0 33 0;
#X connect 81 0 37 0;
#X connect 82 0 84 0;
#X connect 82 1 85 0;
#X connect 82 2 86 0;
#X connect 83 0 2 0;
#X connect 83 0 2 1;
#X connect 83 1 2 0;
#X connect 83 1 2 1;
#X connect 83 2 2 0;
#X connect 83 2 2 1;
#X connect 83 3 2 0;
#X connect 83 3 2 1;
#X connect 84 0 83 0;
#X connect 85 0 83 0;
#X connect 86 0 83 0;
#X connect 88 0 21 0;
#X connect 89 0 91 0;
#X connect 91 0 90 0;
#X connect 91 1 92 0;
