#N canvas 270 22 849 852 10;
#N canvas 600 80 778 667 meta 0;
#X restore -94 19 pd meta;
#N canvas 87 22 870 850 sampler 1;
#X obj 190 813 adc~;
#N canvas 0 50 450 300 (subpatch) 0;
#X array sampleArray 352800 float 0;
#X coords 0 1 352799 -1 200 100 1 0 0;
#X restore 501 826 graph;
#X msg 209 888 stop;
#X msg 397 881 set sampleArray;
#X obj 350 910 tabwrite~ sampleArray;
#X obj 226 813 inlet start;
#X msg 209 862 start;
#X text 348 753 AUDIO SAMPLER At bang \, sets the sampleArray and starts
recording 8 seconds until full;
#X msg 433 606 stop;
#X obj 484 386 threshold~ 1 3000 0.1 1000;
#X obj 484 409 bng 15 250 50 0 empty empty empty 17 7 0 10 -262144
-1 -1;
#X floatatom 484 476 5 0 0 0 - - -;
#X obj 389 277 adc~;
#N canvas 0 22 796 453 (subpatch) 0;
#X array array1 100 float 3;
#A 0 -0.666813 -0.237837 0.118556 0.142898 -0.244307 -0.806761 -1.41666
-1.9164 -2.08015 -1.93079 -1.62886 -1.29084 -1.02075 -0.976611 -1.24042
-1.66103 -1.97187 -2.01177 -1.76427 -1.23222 -0.453831 0.415279 1.15955
1.59685 1.6266 1.28582 0.789968 0.378609 0.20968 0.410893 0.931142
1.49684 1.84361 1.82202 1.41058 0.752448 0.11632 -0.258261 -0.288343
-0.0457786 0.270705 0.430671 0.31918 -0.0411269 -0.547129 -1.04867
-1.39119 -1.5045 -1.44603 -1.32094 -1.19876 -1.08401 -0.930786 -0.721991
-0.495748 -0.287185 -0.102032 0.0863771 0.311945 0.552634 0.739457
0.808926 0.747296 0.629391 0.563632 0.592356 0.675996 0.757884 0.804138
0.799519 0.75164 0.676902 0.600537 0.560224 0.589299 0.731398 1.02021
1.39837 1.70956 1.80347 1.62281 1.17822 0.512018 -0.174226 -0.621964
-0.852213 -0.957043 -0.984744 -1.12062 -1.35595 -1.57148 -1.85373 -2.15001
-2.21806 -1.89446 -1.1248 -0.0414413 0.881143 1.15485 0.879401;
#X coords 0 1 99 -1 200 140 1;
#X restore 641 427 graph;
#X obj 595 334 tabwrite~ array1;
#X obj 601 290 bng 15 250 50 0 empty empty empty 17 7 0 10 -262144
-1 -1;
#X text 661 312 msec.;
#X obj 601 311 metro 160;
#X msg 194 624 stop;
#X obj 259 416 threshold~ 1 3000 0.1 1000;
#X obj 259 439 bng 15 250 50 0 empty empty empty 17 7 0 10 -262144
-1 -1;
#X floatatom 259 506 5 0 0 0 - - -;
#X obj 259 387 *~ 1.5;
#X obj 537 293 *~ 5.5;
#X obj 548 268 dsp;
#X obj 548 238 tgl 15 0 empty empty empty 17 7 0 10 -262144 -1 -1 1
1;
#X obj 548 204 loadbang;
#X obj 260 462 metro 20000;
#X msg 261 618 open c8.wav \, 1;
#X msg 255 590 open c4.wav \, 1;
#X msg 244 565 open Bar-voces.wav \, 1;
#X text 307 505 menos 20 sec;
#X text 521 476 menos 01:35 sec.;
#X msg 464 541 open c5.wav \, 1;
#X msg 481 568 open m2.wav \, 1;
#X msg 493 603 open m3.wav \, 1;
#X obj 388 332 fiddle~;
#X floatatom 387 394 5 0 0 0 - - -;
#X obj 388 361 moses 60;
#X floatatom 432 391 5 0 0 0 - - -;
#X msg 271 640 open patio.wav \, 1;
#X obj 259 529 sel 0 1 2 3;
#X obj 259 484 random 4;
#X obj 240 661 readsf~ 4;
#X msg 508 634 open 2.wav \, 1;
#X obj 484 499 sel 0 1 2 3;
#X obj 486 671 readsf~ 4;
#X obj 485 432 metro 100000;
#X obj 484 357 *~ 1.5;
#X obj 484 454 random 4;
#X connect 2 0 4 0;
#X connect 3 0 4 0;
#X connect 5 0 3 0;
#X connect 5 0 6 0;
#X connect 6 0 4 0;
#X connect 8 0 46 0;
#X connect 9 0 10 0;
#X connect 10 0 47 0;
#X connect 11 0 45 0;
#X connect 12 0 23 0;
#X connect 12 0 36 0;
#X connect 12 0 22 0;
#X connect 12 0 48 0;
#X connect 15 0 17 0;
#X connect 17 0 14 0;
#X connect 18 0 43 0;
#X connect 19 0 20 0;
#X connect 20 0 27 0;
#X connect 21 0 41 0;
#X connect 22 0 19 0;
#X connect 23 0 14 0;
#X connect 25 0 24 0;
#X connect 25 0 15 0;
#X connect 26 0 25 0;
#X connect 27 0 42 0;
#X connect 28 0 43 0;
#X connect 29 0 43 0;
#X connect 30 0 43 0;
#X connect 33 0 46 0;
#X connect 34 0 46 0;
#X connect 35 0 46 0;
#X connect 36 0 38 0;
#X connect 38 0 37 0;
#X connect 38 1 39 0;
#X connect 40 0 43 0;
#X connect 41 0 30 0;
#X connect 41 1 29 0;
#X connect 41 2 28 0;
#X connect 41 3 40 0;
#X connect 42 0 21 0;
#X connect 43 0 4 0;
#X connect 43 1 4 0;
#X connect 43 2 4 0;
#X connect 43 3 4 0;
#X connect 43 4 4 0;
#X connect 44 0 46 0;
#X connect 45 0 33 0;
#X connect 45 1 34 0;
#X connect 45 2 35 0;
#X connect 45 3 44 0;
#X connect 46 0 4 0;
#X connect 46 1 4 0;
#X connect 46 2 4 0;
#X connect 46 3 4 0;
#X connect 46 4 4 0;
#X connect 47 0 49 0;
#X connect 48 0 9 0;
#X connect 49 0 11 0;
#X restore 2 455 pd sampler;
#N canvas 96 37 606 380 clock 0;
#X floatatom 272 99 5 0 0 0 - - -;
#X obj 104 157 f;
#X obj 138 157 + 1;
#X obj 104 178 == 0;
#X obj 104 200 select 1;
#X obj 104 222 bng 15 250 50 0 empty empty empty 17 7 0 10 -262144
-1 -1;
#X msg 104 103 0;
#X msg 23 102 1;
#X obj 23 126 metro 125;
#X obj 23 78 inlet start;
#X obj 104 78 inlet stop;
#X obj 272 76 inlet setTempo;
#X obj 302 140 / 60;
#X msg 272 140 1;
#X obj 272 120 bng 15 250 50 0 empty empty empty 17 7 0 10 -262144
-1 -1;
#X obj 272 163 /;
#X obj 272 186 / 4;
#X floatatom 272 227 5 0 0 0 - - -;
#X obj 272 208 * 1000;
#X obj 180 157 f;
#X obj 214 157 + 1;
#X obj 180 178 == 0;
#X obj 180 200 select 1;
#X obj 180 222 bng 15 250 50 0 empty empty empty 17 7 0 10 -262144
-1 -1;
#X msg 104 126 0;
#X obj 23 221 bng 15 250 50 0 empty empty empty 17 7 0 10 -262144 -1
-1;
#X obj 23 243 outlet clock;
#X obj 104 243 outlet div4;
#X obj 180 243 outlet div128;
#X text 6 8 CLOCK MODULE for clocking the sequence. Inlet for start
\, stop and tempo in BPM format. Outlets for raw clock \, divided by
4 and divided by 128;
#X obj 272 243 outlet ms16th;
#X obj 214 178 mod 128;
#X obj 138 178 mod 64;
#X obj 23 303 send help-send1;
#X connect 0 0 12 0;
#X connect 0 0 14 0;
#X connect 1 0 2 0;
#X connect 1 0 3 0;
#X connect 2 0 32 0;
#X connect 3 0 4 0;
#X connect 4 0 5 0;
#X connect 5 0 27 0;
#X connect 6 0 8 0;
#X connect 7 0 8 0;
#X connect 7 0 24 0;
#X connect 8 0 1 0;
#X connect 8 0 19 0;
#X connect 8 0 25 0;
#X connect 9 0 7 0;
#X connect 10 0 6 0;
#X connect 11 0 0 0;
#X connect 12 0 15 1;
#X connect 13 0 15 0;
#X connect 14 0 13 0;
#X connect 15 0 16 0;
#X connect 16 0 18 0;
#X connect 17 0 8 1;
#X connect 17 0 30 0;
#X connect 18 0 17 0;
#X connect 19 0 20 0;
#X connect 19 0 21 0;
#X connect 20 0 31 0;
#X connect 21 0 22 0;
#X connect 22 0 23 0;
#X connect 23 0 28 0;
#X connect 24 0 1 0;
#X connect 24 0 19 0;
#X connect 25 0 26 0;
#X connect 25 0 17 0;
#X connect 25 0 33 0;
#X connect 31 0 19 1;
#X connect 32 0 1 1;
#X coords 0 380 1 379 85 15 0;
#X restore -474 423 pd clock;
#N canvas 165 325 584 420 looper 0;
#X obj 19 21 inlet trigger;
#X obj 154 160 bng 15 250 50 0 empty empty empty 17 7 0 10 -262144
-1 -1;
#X obj 154 240 tabread4~ sampleArray;
#X obj 154 212 line~;
#X obj 19 71 f;
#X obj 45 71 + 1;
#X obj 19 92 == 0;
#X obj 19 121 select 1;
#X obj 19 152 bng 15 250 50 0 empty empty empty 17 7 0 10 -262144 -1
-1;
#X obj 19 240 tabread4~ sampleArray;
#X obj 19 210 line~;
#X obj 71 378 outlet~ normal;
#X obj 333 378 outlet~ reverse;
#X obj 34 309 vline~;
#X obj 19 335 *~;
#X obj 169 311 vline~;
#X obj 154 338 *~;
#X obj 34 264 pack f f;
#X floatatom 197 67 5 0 0 0 - - -;
#X obj 197 21 inlet time;
#X obj 154 138 delay;
#X obj 169 264 pack f f;
#X obj 435 160 bng 15 250 50 0 empty empty empty 17 7 0 10 -262144
-1 -1;
#X obj 435 240 tabread4~ sampleArray;
#X obj 435 212 line~;
#X obj 300 152 bng 15 250 50 0 empty empty empty 17 7 0 10 -262144
-1 -1;
#X obj 300 240 tabread4~ sampleArray;
#X obj 300 210 line~;
#X obj 315 309 vline~;
#X obj 300 335 *~;
#X obj 450 311 vline~;
#X obj 435 338 *~;
#X obj 315 264 pack f f;
#X obj 435 138 delay;
#X obj 450 264 pack f f;
#X obj 34 47 mod 32;
#X obj 197 43 * 16;
#X msg 19 181 0 \, 352800 8000;
#X msg 154 185 0 \, 352800 8000;
#X msg 300 181 352800 \, 0 8000;
#X msg 435 181 352800 \, 0 8000;
#X msg 34 287 1 \$2 \, 0 \$2 \$2;
#X msg 169 289 1 \$2 \, 0 \$2 \$2;
#X msg 315 287 1 \$2 \, 0 \$2 \$2;
#X msg 450 289 1 \$2 \, 0 \$2 \$2;
#X connect 0 0 4 0;
#X connect 1 0 38 0;
#X connect 1 0 21 0;
#X connect 2 0 16 0;
#X connect 3 0 2 0;
#X connect 4 0 5 0;
#X connect 4 0 6 0;
#X connect 5 0 35 0;
#X connect 6 0 7 0;
#X connect 7 0 8 0;
#X connect 7 0 20 0;
#X connect 7 0 25 0;
#X connect 7 0 33 0;
#X connect 8 0 37 0;
#X connect 8 0 17 0;
#X connect 9 0 14 0;
#X connect 10 0 9 0;
#X connect 13 0 14 1;
#X connect 14 0 11 0;
#X connect 15 0 16 1;
#X connect 16 0 11 0;
#X connect 17 0 41 0;
#X connect 18 0 17 1;
#X connect 18 0 20 1;
#X connect 18 0 21 1;
#X connect 18 0 34 1;
#X connect 18 0 32 1;
#X connect 18 0 33 1;
#X connect 19 0 36 0;
#X connect 20 0 1 0;
#X connect 21 0 42 0;
#X connect 22 0 40 0;
#X connect 22 0 34 0;
#X connect 23 0 31 0;
#X connect 24 0 23 0;
#X connect 25 0 39 0;
#X connect 25 0 32 0;
#X connect 26 0 29 0;
#X connect 27 0 26 0;
#X connect 28 0 29 1;
#X connect 29 0 12 0;
#X connect 30 0 31 1;
#X connect 31 0 12 0;
#X connect 32 0 43 0;
#X connect 33 0 22 0;
#X connect 34 0 44 0;
#X connect 35 0 4 1;
#X connect 36 0 18 0;
#X connect 37 0 10 0;
#X connect 38 0 3 0;
#X connect 39 0 27 0;
#X connect 40 0 24 0;
#X connect 41 0 13 0;
#X connect 42 0 15 0;
#X connect 43 0 28 0;
#X connect 44 0 30 0;
#X restore -363 430 pd looper;
#X obj -453 221 bng 30 250 50 0 empty empty START 0 -5 0 10 -4034 -1
-1;
#X obj -484 221 bng 30 250 50 0 empty empty STOP 0 -5 0 10 -258113
-1 -1;
#N canvas 479 203 1165 614 mixfx 0;
#X obj 31 -156 vsl 30 60 0 1 0 1 empty empty empty 0 -9 0 10 -262144
-1 -1 3319 1;
#X obj 19 -86 *~;
#X obj 94 -156 vsl 15 60 0 1 0 1 empty empty empty 0 -9 0 10 -262144
-1 -1 1659 1;
#X obj 65 -156 vsl 15 60 0 1 0 1 empty empty empty 0 -9 0 10 -262144
-1 -1 1659 1;
#X obj 50 -86 *~;
#X obj 79 -86 *~;
#X obj 50 2 throw~ delay;
#X obj 79 -31 throw~ reverb;
#X obj 144 82 catch~ reverb;
#X obj 448 75 catch~ delay;
#X obj 47 199 dac~;
#X obj 28 98 catch~ mainL;
#X obj 77 100 catch~ mainR;
#X obj 144 216 throw~ mainL;
#X obj 193 216 throw~ mainR;
#X obj 447 289 throw~ mainL;
#X obj 601 294 throw~ mainR;
#X obj 136 -156 vsl 30 60 0 1 0 1 empty empty empty 0 -9 0 10 -262144
-1 -1 3319 1;
#X obj 124 -86 *~;
#X obj 199 -156 vsl 15 60 0 1 0 1 empty empty empty 0 -9 0 10 -262144
-1 -1 1659 1;
#X obj 170 -156 vsl 15 60 0 1 0 1 empty empty empty 0 -9 0 10 -262144
-1 -1 1659 1;
#X obj 155 -86 *~;
#X obj 184 -86 *~;
#X obj 155 2 throw~ delay;
#X obj 184 -30 throw~ reverb;
#X obj 242 -156 vsl 30 60 0 1 0 1 empty empty empty 0 -9 0 10 -262144
-1 -1 3319 1;
#X obj 230 -86 *~;
#X obj 305 -156 vsl 15 60 0 1 0 1 empty empty empty 0 -9 0 10 -262144
-1 -1 1659 1;
#X obj 276 -156 vsl 15 60 0 1 0 1 empty empty empty 0 -9 0 10 -262144
-1 -1 1659 1;
#X obj 261 -86 *~;
#X obj 290 -86 *~;
#X obj 261 -33 throw~ delay;
#X obj 290 -65 throw~ reverb;
#X obj 230 25 throw~ mainL;
#X obj 493 -158 vsl 30 60 0 1 0 1 empty empty empty 0 -9 0 10 -262144
-1 -1 3319 1;
#X obj 481 -88 *~;
#X obj 556 -157 vsl 15 60 0 1 0 1 empty empty empty 0 -9 0 10 -262144
-1 -1 0 1;
#X obj 527 -158 vsl 15 60 0 1 0 1 empty empty empty 0 -9 0 10 -262144
-1 -1 3319 1;
#X obj 512 -88 *~;
#X obj 541 -88 *~;
#X obj 512 -35 throw~ delay;
#X obj 541 -67 throw~ reverb;
#X obj 480 3 throw~ mainL;
#X obj 531 3 throw~ mainR;
#X obj 831 -223 inlet time;
#X obj 608 145 throw~ mainR;
#X obj 447 243 vd~ delayL;
#X obj 600 249 vd~ delayR;
#X obj 599 120 vd~ pp 0;
#X obj 831 -128 line~;
#X obj 831 -174 line;
#X obj 599 98 /~ 2;
#X obj 19 40 throw~ mainL;
#X obj 124 40 throw~ mainR;
#X obj 598 -159 vsl 30 60 0 1 0 1 empty empty empty 0 -9 0 10 -262144
-1 -1 3319 1;
#X obj 662 -159 vsl 15 60 0 1 0 1 empty empty empty 0 -9 0 10 -262144
-1 -1 0 1;
#X obj 632 -159 vsl 15 60 0 1 0 1 empty empty empty 0 -9 0 10 -262144
-1 -1 0 1;
#X obj 617 -89 *~;
#X obj 646 -89 *~;
#X obj 617 -36 throw~ delay;
#X obj 646 -68 throw~ reverb;
#X obj 586 2 throw~ mainL;
#X obj 636 2 throw~ mainR;
#X obj 704 -159 vsl 30 60 0 1 0 1 empty empty empty 0 -9 0 10 -262144
-1 -1 3319 1;
#X obj 692 -89 *~;
#X obj 767 -159 vsl 15 60 0 1 0 1 empty empty empty 0 -9 0 10 -262144
-1 -1 3319 1;
#X obj 738 -159 vsl 15 60 0 1 0 1 empty empty empty 0 -9 0 10 -262144
-1 -1 3319 1;
#X obj 723 -89 *~;
#X obj 752 -89 *~;
#X obj 723 -36 throw~ delay;
#X obj 752 -68 throw~ reverb;
#X obj 692 2 throw~ mainL;
#X obj 742 2 throw~ mainR;
#X obj 831 -104 send~ vari;
#X obj 599 78 receive~ vari;
#X obj 692 -224 inlet~ ch6;
#X obj 831 -153 pack 0 500;
#X obj 457 158 delwrite~ pp 10000;
#X obj 448 181 delwrite~ delayL 10000;
#X obj 599 180 delwrite~ delayR 10000;
#X obj 447 266 bp~ 6000 2;
#X obj 601 273 bp~ 6000 2;
#X obj 19 2 hip~ 500;
#X obj 124 2 hip~ 500;
#X obj 586 -88 *~;
#X obj 586 -36 hip~ 40;
#X obj 913 -223 inlet reality;
#X obj 1053 -84 expr 1 - $f1;
#X obj 77 153 *~ 0.7;
#X obj 29 156 *~ 0.7;
#X obj 144 173 rev3~ 110 98 3000 100;
#X obj 448 115 hip~ 750;
#X obj 448 136 hip~ 750;
#X obj 360 -158 vsl 30 60 0 1 0 1 empty empty empty 0 -9 0 10 -262144
-1 -1 3319 1;
#X obj 348 -88 *~;
#X obj 423 -158 vsl 15 60 0 1 0 1 empty empty empty 0 -9 0 10 -262144
-1 -1 1659 1;
#X obj 394 -158 vsl 15 60 0 1 0 1 empty empty empty 0 -9 0 10 -262144
-1 -1 1659 1;
#X obj 379 -88 *~;
#X obj 408 -88 *~;
#X obj 379 -35 throw~ delay;
#X obj 408 -67 throw~ reverb;
#X obj 278 25 throw~ mainR;
#X obj 230 2 *~ 0.7;
#X obj 278 2 *~ 0.3;
#X obj 347 26 throw~ mainL;
#X obj 395 26 throw~ mainR;
#X obj 347 3 *~ 0.3;
#X obj 395 3 *~ 0.7;
#X obj 144 124 hip~ 750;
#X obj 144 149 hip~ 750;
#X obj 144 103 *~ 0.7;
#X obj 19 -221 inlet~ ambienceL;
#X obj 123 -221 inlet~ ambienceR;
#X obj 230 -221 inlet~ synthL;
#X obj 348 -223 inlet~ synthR;
#X obj 481 -223 inlet~ rhythm;
#X obj 586 -224 inlet~ kick;
#X obj 448 95 *~ 0.5;
#X obj 289 243 throw~ mainL;
#X obj 330 277 throw~ mainR;
#X obj 289 82 catch~ rhythmVerb;
#X obj 465 -53 throw~ rhythmVerb;
#X obj 289 127 hip~ 500;
#X obj 289 152 hip~ 500;
#X obj 289 198 lop~ 1500;
#X obj 330 218 lop~ 1500;
#X obj 289 176 rev3~ 100 80 1000 100;
#X obj 289 105 *~ 0.5;
#X obj 600 226 receive~ vari;
#X obj 447 223 receive~ vari;
#X obj 79 -57 *~ 0.33;
#X obj 184 -57 *~ 0.33;
#X obj 947 -56 expr 1 - $f1;
#X obj 939 -112 unpack f f;
#X obj 954 -12 s xInv;
#X obj 936 37 s xNorm;
#X obj 1048 -13 s yInv;
#X obj 1030 36 s yNorm;
#X obj 809 76 r yNorm;
#X obj 823 295 r yInv;
#X floatatom 823 317 5 0 0 0 - - -;
#X obj 870 295 r xInv;
#X floatatom 868 320 5 0 0 0 - - -;
#X obj 845 349 *;
#X obj 860 76 r xInv;
#X obj 965 78 r yNorm;
#X obj 1016 78 r xNorm;
#X floatatom 966 318 5 0 0 0 - - -;
#X floatatom 1017 318 5 0 0 0 - - -;
#X obj 966 296 r xNorm;
#X obj 1017 296 r yInv;
#X obj 996 485 s bRight;
#X obj 832 235 s tLeft;
#X obj 993 231 s tRight;
#X obj 598 -205 r bLeft;
#X obj 489 -201 r bRight;
#X obj 545 -199 r bLeft;
#X obj 30 -201 r tRight;
#X obj 136 -202 r tRight;
#X obj 242 -202 r tLeft;
#X obj 360 -204 r tLeft;
#X obj 85 -201 r tLeft;
#X obj 190 -202 r tLeft;
#X obj 292 -201 r tRight;
#X obj 417 -200 r tRight;
#X obj 704 -205 r tLeft;
#X obj 721 -184 r tRight;
#X obj 951 -33 * 1.5;
#X obj 937 18 * 1.5;
#X obj 1029 13 * 1.5;
#X obj 1052 -34 * 1.5;
#X obj 847 480 s bLeft;
#X obj 847 452 line;
#X msg 847 429 \$1 100;
#X obj 847 407 *;
#X obj 812 383 clip 0 1;
#X obj 999 348 *;
#X obj 1001 451 line;
#X msg 1001 428 \$1 100;
#X obj 1001 406 *;
#X obj 966 382 clip 0 1;
#X obj 835 108 *;
#X obj 837 211 line;
#X msg 837 188 \$1 100;
#X obj 837 166 *;
#X obj 802 142 clip 0 1;
#X obj 1007 104 *;
#X obj 1009 207 line;
#X msg 1009 184 \$1 100;
#X obj 1009 162 *;
#X obj 974 138 clip 0 1;
#X obj 831 -200 * 8;
#X obj 461 203 *~ 0.4;
#X obj 603 202 *~ 0.4;
#X obj 860 142 > 0.4;
#X obj 1033 138 > 0.4;
#X obj 870 383 > 0.4;
#X obj 1030 383 > 0.4;
#X obj 506 -181 * 0.5;
#X obj 371 -184 * 0.5;
#X obj 253 -181 * 0.5;
#X obj 39 -180 * 0.5;
#X obj 143 -180 * 0.5;
#X obj 826 -83 loadbang;
#X obj 892 -15 0.5;
#X obj 827 20 del 100;
#X obj 827 -22 del 100;
#X obj 827 -1 del 100;
#X obj 827 41 del 100;
#X obj 825 -50 bng 15 250 50 0 empty empty empty 17 7 0 10 -262144
-1 -1;
#X obj 16 256 outlet~ L;
#X obj 82 254 outlet~ R;
#X connect 0 0 1 1;
#X connect 1 0 4 0;
#X connect 1 0 5 0;
#X connect 1 0 82 0;
#X connect 2 0 5 1;
#X connect 3 0 4 1;
#X connect 4 0 6 0;
#X connect 5 0 130 0;
#X connect 8 0 110 0;
#X connect 9 0 117 0;
#X connect 11 0 89 0;
#X connect 12 0 88 0;
#X connect 17 0 18 1;
#X connect 18 0 21 0;
#X connect 18 0 22 0;
#X connect 18 0 83 0;
#X connect 19 0 22 1;
#X connect 20 0 21 1;
#X connect 21 0 23 0;
#X connect 22 0 131 0;
#X connect 25 0 26 1;
#X connect 26 0 29 0;
#X connect 26 0 30 0;
#X connect 26 0 102 0;
#X connect 26 0 103 0;
#X connect 27 0 30 1;
#X connect 28 0 29 1;
#X connect 29 0 31 0;
#X connect 30 0 32 0;
#X connect 34 0 35 1;
#X connect 35 0 38 0;
#X connect 35 0 39 0;
#X connect 35 0 42 0;
#X connect 35 0 43 0;
#X connect 35 0 121 0;
#X connect 36 0 39 1;
#X connect 37 0 38 1;
#X connect 38 0 40 0;
#X connect 39 0 41 0;
#X connect 44 0 191 0;
#X connect 46 0 80 0;
#X connect 47 0 81 0;
#X connect 48 0 45 0;
#X connect 48 0 79 0;
#X connect 49 0 73 0;
#X connect 50 0 76 0;
#X connect 51 0 48 0;
#X connect 54 0 84 1;
#X connect 55 0 58 1;
#X connect 56 0 57 1;
#X connect 57 0 59 0;
#X connect 58 0 60 0;
#X connect 63 0 64 1;
#X connect 64 0 67 0;
#X connect 64 0 68 0;
#X connect 64 0 71 0;
#X connect 64 0 72 0;
#X connect 65 0 68 1;
#X connect 66 0 67 1;
#X connect 67 0 69 0;
#X connect 68 0 70 0;
#X connect 74 0 51 0;
#X connect 75 0 64 0;
#X connect 76 0 49 0;
#X connect 80 0 15 0;
#X connect 80 0 192 0;
#X connect 81 0 16 0;
#X connect 81 0 193 0;
#X connect 82 0 52 0;
#X connect 83 0 53 0;
#X connect 84 0 57 0;
#X connect 84 0 58 0;
#X connect 84 0 85 0;
#X connect 85 0 61 0;
#X connect 85 0 62 0;
#X connect 86 0 133 0;
#X connect 87 0 170 0;
#X connect 88 0 10 1;
#X connect 88 0 211 0;
#X connect 89 0 10 0;
#X connect 89 0 210 0;
#X connect 90 0 13 0;
#X connect 90 1 14 0;
#X connect 91 0 92 0;
#X connect 92 0 78 0;
#X connect 92 0 77 0;
#X connect 93 0 94 1;
#X connect 94 0 97 0;
#X connect 94 0 98 0;
#X connect 94 0 106 0;
#X connect 94 0 107 0;
#X connect 95 0 98 1;
#X connect 96 0 97 1;
#X connect 97 0 99 0;
#X connect 98 0 100 0;
#X connect 102 0 33 0;
#X connect 103 0 101 0;
#X connect 106 0 104 0;
#X connect 107 0 105 0;
#X connect 108 0 109 0;
#X connect 109 0 90 0;
#X connect 110 0 108 0;
#X connect 111 0 1 0;
#X connect 112 0 18 0;
#X connect 113 0 26 0;
#X connect 114 0 94 0;
#X connect 115 0 35 0;
#X connect 116 0 84 0;
#X connect 117 0 91 0;
#X connect 120 0 127 0;
#X connect 122 0 123 0;
#X connect 123 0 126 0;
#X connect 124 0 118 0;
#X connect 125 0 119 0;
#X connect 126 0 124 0;
#X connect 126 1 125 0;
#X connect 127 0 122 0;
#X connect 128 0 47 0;
#X connect 129 0 46 0;
#X connect 130 0 7 0;
#X connect 131 0 24 0;
#X connect 132 0 167 0;
#X connect 133 0 132 0;
#X connect 133 0 168 0;
#X connect 133 1 87 0;
#X connect 133 1 169 0;
#X connect 138 0 181 0;
#X connect 139 0 140 0;
#X connect 140 0 143 0;
#X connect 141 0 142 0;
#X connect 142 0 143 1;
#X connect 143 0 175 0;
#X connect 143 0 196 0;
#X connect 144 0 181 1;
#X connect 145 0 186 0;
#X connect 146 0 186 1;
#X connect 147 0 176 0;
#X connect 148 0 176 1;
#X connect 149 0 147 0;
#X connect 150 0 148 0;
#X connect 154 0 54 0;
#X connect 155 0 34 0;
#X connect 155 0 198 0;
#X connect 156 0 37 0;
#X connect 157 0 0 0;
#X connect 157 0 201 0;
#X connect 158 0 17 0;
#X connect 158 0 202 0;
#X connect 159 0 25 0;
#X connect 159 0 200 0;
#X connect 160 0 93 0;
#X connect 160 0 199 0;
#X connect 163 0 28 0;
#X connect 163 0 27 0;
#X connect 164 0 96 0;
#X connect 164 0 95 0;
#X connect 165 0 63 0;
#X connect 166 0 66 0;
#X connect 166 0 65 0;
#X connect 167 0 134 0;
#X connect 168 0 135 0;
#X connect 169 0 137 0;
#X connect 170 0 136 0;
#X connect 172 0 171 0;
#X connect 173 0 172 0;
#X connect 174 0 173 0;
#X connect 175 0 174 0;
#X connect 176 0 180 0;
#X connect 176 0 197 0;
#X connect 177 0 151 0;
#X connect 178 0 177 0;
#X connect 179 0 178 0;
#X connect 180 0 179 0;
#X connect 181 0 185 0;
#X connect 181 0 194 0;
#X connect 182 0 152 0;
#X connect 183 0 182 0;
#X connect 184 0 183 0;
#X connect 185 0 184 0;
#X connect 186 0 190 0;
#X connect 186 0 195 0;
#X connect 187 0 153 0;
#X connect 188 0 187 0;
#X connect 189 0 188 0;
#X connect 190 0 189 0;
#X connect 191 0 50 0;
#X connect 192 0 78 0;
#X connect 193 0 79 0;
#X connect 194 0 184 1;
#X connect 195 0 189 1;
#X connect 196 0 174 1;
#X connect 197 0 179 1;
#X connect 198 0 37 0;
#X connect 199 0 96 0;
#X connect 199 0 95 0;
#X connect 200 0 28 0;
#X connect 200 0 27 0;
#X connect 201 0 3 0;
#X connect 201 0 2 0;
#X connect 202 0 20 0;
#X connect 202 0 19 0;
#X connect 203 0 209 0;
#X connect 204 0 168 0;
#X connect 204 0 169 0;
#X connect 204 0 132 0;
#X connect 204 0 170 0;
#X connect 205 0 208 0;
#X connect 205 0 204 0;
#X connect 206 0 207 0;
#X connect 206 0 204 0;
#X connect 207 0 205 0;
#X connect 207 0 204 0;
#X connect 208 0 204 0;
#X connect 209 0 206 0;
#X coords 0 614 1 613 100 15 0;
#X restore -60 705 pd mixfx;
#N canvas 0 330 1366 612 synth 0;
#X obj 85 191 mtof;
#X obj 10 72 bng 15 250 50 0 empty empty empty 17 7 0 10 -262144 -1
-1;
#X obj 85 213 spigot;
#X floatatom 179 256 5 0 0 0 - - -;
#X obj 85 238 poly 4 1;
#X obj 85 270 pack 0 0 0;
#X obj 27 302 route 1 2 3 4;
#X obj 179 213 spigot;
#X obj 91 121 receive scale;
#X obj 85 141 tabread;
#X obj 85 100 random 5;
#X obj 10 16 inlet clock;
#X obj 385 23 inlet decay;
#X obj 240 11 inlet intensity;
#X obj 179 79 random 0;
#X obj 10 142 select 1;
#X msg 10 166 1;
#X msg 55 167 0;
#X obj 10 100 random 10;
#X obj 235 79 * -1;
#X obj 235 142 s trigRdm;
#X obj 61 69 r trigRdm;
#X obj 543 191 mtof;
#X obj 468 72 bng 15 250 50 0 empty empty empty 17 7 0 10 -262144 -1
-1;
#X obj 543 213 spigot;
#X floatatom 637 256 5 0 0 0 - - -;
#X obj 543 238 poly 4 1;
#X obj 543 270 pack 0 0 0;
#X obj 485 302 route 1 2 3 4;
#X obj 637 213 spigot;
#X obj 549 122 receive scale;
#X obj 543 142 tabread;
#X obj 543 101 random 5;
#X obj 637 79 random 0;
#X obj 468 142 select 1;
#X msg 468 166 1;
#X msg 513 167 0;
#X obj 468 100 random 10;
#X obj 519 69 r trigRdm;
#X obj 27 350 fmsynth;
#X obj 543 163 +;
#X obj 85 167 +;
#X obj 112 167 r transpose;
#X floatatom 195 119 5 0 0 0 - - -;
#X obj 235 57 / 200;
#X obj 235 121 clip 3 10;
#X obj 235 100 + 9;
#X obj 569 163 r transpose;
#X obj 27 374 throw~ mixL;
#X obj 211 372 throw~ mixL;
#X obj 485 374 throw~ mixL;
#X obj 669 373 throw~ mixL;
#X obj 119 374 throw~ mixR;
#X obj 303 373 throw~ mixR;
#X obj 577 374 throw~ mixR;
#X obj 761 373 throw~ mixR;
#X obj 27 414 catch~ mixL;
#X obj 27 459 outlet~ mainL;
#X obj 119 413 catch~ mixR;
#X obj 119 458 outlet~ mainR;
#X obj 27 437 *~ 0.3;
#X obj 119 436 *~ 0.3;
#X obj 970 194 mtof;
#X obj 895 75 bng 15 250 50 0 empty empty empty 17 7 0 10 -262144 -1
-1;
#X obj 970 216 spigot;
#X floatatom 1064 259 5 0 0 0 - - -;
#X obj 970 241 poly 4 1;
#X obj 970 273 pack 0 0 0;
#X obj 912 305 route 1 2 3 4;
#X obj 1064 216 spigot;
#X obj 1064 82 random 0;
#X msg 895 169 1;
#X msg 940 170 0;
#X obj 946 51 r trigRdm;
#X obj 970 166 +;
#X obj 1017 120 r transpose;
#X obj 1064 237 / 4;
#X msg 971 115 0;
#X obj 1056 500 outlet~ bass;
#X obj 485 350 fmsynth;
#X obj 119 349 fmsynth;
#X obj 211 348 fmsynth;
#X obj 303 350 fmsynth;
#X obj 577 349 fmsynth;
#X obj 669 348 fmsynth;
#X obj 761 350 fmsynth;
#X obj 912 353 fmsynth;
#X obj 1004 352 fmsynth;
#X obj 1096 351 fmsynth;
#X obj 1188 353 fmsynth;
#X obj 919 326 receive decayB;
#X obj 1010 325 receive decayB;
#X obj 1103 325 receive decayB;
#X obj 1195 326 receive decayB;
#X obj 307 187 random;
#X floatatom 307 234 5 0 0 0 - - -;
#X obj 307 210 + 50;
#X obj 307 167 bng 15 250 50 0 empty empty empty 17 7 0 10 -262144
-1 -1;
#X obj 307 256 send decay1;
#X obj 34 323 receive decay1;
#X obj 125 322 receive decay1;
#X obj 219 322 receive decay1;
#X obj 310 323 receive decay1;
#X obj 710 200 random;
#X floatatom 710 247 5 0 0 0 - - -;
#X obj 710 223 + 50;
#X obj 710 180 bng 15 250 50 0 empty empty empty 17 7 0 10 -262144
-1 -1;
#X obj 710 269 send decay2;
#X obj 493 323 receive decay2;
#X obj 583 322 receive decay2;
#X obj 675 322 receive decay2;
#X obj 769 323 receive decay2;
#X obj 1117 193 random;
#X obj 1117 173 bng 15 250 50 0 empty empty empty 17 7 0 10 -262144
-1 -1;
#X obj 1117 262 send decayB;
#X obj 1117 216 + 50;
#X obj 1017 149 - 24;
#X obj 1057 424 clip~ -0.4 0.4;
#X obj 1058 474 *~ 0.5;
#X obj 1166 411 r intensityBass;
#X obj 1164 449 clip 200 1000;
#X obj 1057 450 lop~;
#X obj 1057 396 *~ 2;
#X obj 895 145 select 0;
#X obj 281 66 s intensityBass;
#X obj 895 103 random;
#X obj 946 76 * 1.5;
#X connect 0 0 2 0;
#X connect 1 0 14 0;
#X connect 1 0 18 0;
#X connect 1 0 10 0;
#X connect 2 0 4 0;
#X connect 3 0 5 2;
#X connect 3 0 97 0;
#X connect 4 0 5 0;
#X connect 4 1 5 1;
#X connect 5 0 6 0;
#X connect 6 0 39 0;
#X connect 6 1 80 0;
#X connect 6 2 81 0;
#X connect 6 3 82 0;
#X connect 7 0 3 0;
#X connect 8 0 9 0;
#X connect 9 0 41 0;
#X connect 10 0 9 0;
#X connect 11 0 63 0;
#X connect 11 0 1 0;
#X connect 11 0 23 0;
#X connect 12 0 94 1;
#X connect 12 0 103 1;
#X connect 12 0 112 1;
#X connect 13 0 14 1;
#X connect 13 0 33 1;
#X connect 13 0 44 0;
#X connect 13 0 70 1;
#X connect 13 0 124 0;
#X connect 14 0 7 0;
#X connect 15 0 16 0;
#X connect 15 1 17 0;
#X connect 16 0 4 1;
#X connect 16 0 2 1;
#X connect 16 0 7 1;
#X connect 17 0 4 1;
#X connect 17 0 2 1;
#X connect 17 0 7 1;
#X connect 18 0 15 0;
#X connect 19 0 46 0;
#X connect 21 0 18 1;
#X connect 22 0 24 0;
#X connect 23 0 33 0;
#X connect 23 0 37 0;
#X connect 23 0 32 0;
#X connect 24 0 26 0;
#X connect 25 0 27 2;
#X connect 26 0 27 0;
#X connect 26 1 27 1;
#X connect 27 0 28 0;
#X connect 28 0 79 0;
#X connect 28 1 83 0;
#X connect 28 2 84 0;
#X connect 28 3 85 0;
#X connect 29 0 25 0;
#X connect 29 0 106 0;
#X connect 30 0 31 0;
#X connect 31 0 40 0;
#X connect 32 0 31 0;
#X connect 33 0 29 0;
#X connect 34 0 35 0;
#X connect 34 1 36 0;
#X connect 35 0 26 1;
#X connect 35 0 24 1;
#X connect 35 0 29 1;
#X connect 36 0 26 1;
#X connect 36 0 24 1;
#X connect 36 0 29 1;
#X connect 37 0 34 0;
#X connect 38 0 37 1;
#X connect 39 0 48 0;
#X connect 40 0 22 0;
#X connect 41 0 0 0;
#X connect 42 0 41 1;
#X connect 44 0 19 0;
#X connect 45 0 20 0;
#X connect 46 0 43 0;
#X connect 46 0 45 0;
#X connect 47 0 40 1;
#X connect 56 0 60 0;
#X connect 58 0 61 0;
#X connect 60 0 57 0;
#X connect 61 0 59 0;
#X connect 62 0 64 0;
#X connect 63 0 70 0;
#X connect 63 0 77 0;
#X connect 63 0 125 0;
#X connect 64 0 66 0;
#X connect 65 0 67 2;
#X connect 66 0 67 0;
#X connect 66 1 67 1;
#X connect 67 0 68 0;
#X connect 68 0 86 0;
#X connect 68 1 87 0;
#X connect 68 2 88 0;
#X connect 68 3 89 0;
#X connect 69 0 76 0;
#X connect 69 0 113 0;
#X connect 70 0 69 0;
#X connect 71 0 66 1;
#X connect 71 0 64 1;
#X connect 71 0 69 1;
#X connect 72 0 66 1;
#X connect 72 0 64 1;
#X connect 72 0 69 1;
#X connect 73 0 126 0;
#X connect 74 0 62 0;
#X connect 75 0 116 0;
#X connect 76 0 65 0;
#X connect 77 0 74 0;
#X connect 79 0 50 0;
#X connect 80 0 52 0;
#X connect 81 0 49 0;
#X connect 82 0 53 0;
#X connect 83 0 54 0;
#X connect 84 0 51 0;
#X connect 85 0 55 0;
#X connect 86 0 122 0;
#X connect 87 0 122 0;
#X connect 88 0 122 0;
#X connect 89 0 122 0;
#X connect 90 0 86 1;
#X connect 91 0 87 1;
#X connect 92 0 88 1;
#X connect 93 0 89 1;
#X connect 94 0 96 0;
#X connect 95 0 98 0;
#X connect 96 0 95 0;
#X connect 97 0 94 0;
#X connect 99 0 39 1;
#X connect 100 0 80 1;
#X connect 101 0 81 1;
#X connect 102 0 82 1;
#X connect 103 0 105 0;
#X connect 104 0 107 0;
#X connect 105 0 104 0;
#X connect 106 0 103 0;
#X connect 108 0 79 1;
#X connect 109 0 83 1;
#X connect 110 0 84 1;
#X connect 111 0 85 1;
#X connect 112 0 115 0;
#X connect 113 0 112 0;
#X connect 115 0 114 0;
#X connect 116 0 74 1;
#X connect 117 0 121 0;
#X connect 118 0 78 0;
#X connect 119 0 120 0;
#X connect 120 0 121 1;
#X connect 121 0 118 0;
#X connect 122 0 117 0;
#X connect 123 0 71 0;
#X connect 123 1 72 0;
#X connect 125 0 123 0;
#X connect 126 0 125 1;
#X restore -475 559 pd synth;
#X obj -403 171 loadbang;
#X msg -403 189 90;
#X obj -429 443 s time;
#X obj -430 538 r time;
#X obj -312 410 r time;
#X obj 16 664 r time;
#X obj -403 223 vsl 30 60 60 180 0 0 empty empty TEMPO 0 -9 1 10 -262130
-1 -1 2675 1;
#X obj -349 171 loadbang;
#X obj -349 223 vsl 30 60 0 1000 0 0 empty empty INTENSITY 0 -9 1 10
-232576 -1 -1 1500 1;
#X obj -349 368 s intens;
#X obj -453 518 r intens;
#X obj -484 73 receive fromGUI;
#X obj -484 92 route list;
#X obj -421 130 * 120;
#X obj -421 148 + 60;
#X obj -358 130 * 1000;
#N canvas 219 115 994 688 rhythmSampler 0;
#X obj -37 -489 adc~;
#X obj 7 515 outlet~ out;
#X obj 15 106 bng 15 250 50 0 empty empty empty 17 7 0 10 -262144 -1
-1;
#N canvas 0 50 450 300 (subpatch) 0;
#X array rhythmSample 88200 float 0;
#X coords 0 1 88199 -1 200 100 1 0 0;
#X restore 350 284 graph;
#X msg 15 301 set rhythmSample;
#X obj 241 79 line~;
#X obj 241 100 tabread4~ rhythmSample;
#X obj 241 122 *~;
#X obj 241 35 bng 15 250 50 0 empty empty empty 17 7 0 10 -262144 -1
-1;
#X msg 25 271 start 0;
#X obj 25 127 f;
#X obj 52 127 + 1;
#X obj 25 148 mod 4;
#X obj 25 170 select 0 1 2 3;
#X obj 25 190 bng 15 250 50 0 empty empty empty 17 7 0 10 -262144 -1
-1;
#X obj 45 190 bng 15 250 50 0 empty empty empty 17 7 0 10 -262144 -1
-1;
#X obj 65 190 bng 15 250 50 0 empty empty empty 17 7 0 10 -262144 -1
-1;
#X obj 85 190 bng 15 250 50 0 empty empty empty 17 7 0 10 -262144 -1
-1;
#X msg 173 225 stop;
#X obj 241 223 throw~ sampleOut;
#X obj 7 359 catch~ sampleOut;
#X obj 241 13 inlet trig1;
#X obj 7 397 lop~ 5000;
#X obj 260 203 vline~;
#X obj 260 162 pack f f;
#X msg 260 183 1 1 \, 0 \$2 1;
#X obj 805 8 inlet intensity;
#X obj 312 121 random;
#X obj 382 78 line~;
#X obj 382 99 tabread4~ rhythmSample;
#X obj 382 121 *~;
#X obj 382 34 bng 15 250 50 0 empty empty empty 17 7 0 10 -262144 -1
-1;
#X obj 382 222 throw~ sampleOut;
#X obj 401 202 vline~;
#X obj 401 161 pack f f;
#X msg 401 182 1 1 \, 0 \$2 1;
#X obj 453 120 random;
#X obj 523 77 line~;
#X obj 523 98 tabread4~ rhythmSample;
#X obj 523 120 *~;
#X obj 523 33 bng 15 250 50 0 empty empty empty 17 7 0 10 -262144 -1
-1;
#X obj 523 221 throw~ sampleOut;
#X obj 542 201 vline~;
#X obj 542 160 pack f f;
#X msg 542 181 1 1 \, 0 \$2 1;
#X obj 594 140 + 50;
#X obj 594 119 random;
#X obj 664 76 line~;
#X obj 664 97 tabread4~ rhythmSample;
#X obj 664 119 *~;
#X obj 664 32 bng 15 250 50 0 empty empty empty 17 7 0 10 -262144 -1
-1;
#X obj 664 220 throw~ sampleOut;
#X obj 683 200 vline~;
#X obj 683 159 pack f f;
#X msg 683 180 1 1 \, 0 \$2 1;
#X obj 735 139 + 50;
#X obj 735 118 random;
#X obj 382 12 inlet trig2;
#X obj 523 11 inlet trig3;
#X obj 664 10 inlet trig4;
#X obj 814 55 s in;
#X obj 749 75 r in;
#X obj 608 76 r in;
#X obj 468 77 r in;
#X obj 326 78 r in;
#X obj 453 141 + 50;
#X obj 312 142 + 50;
#X obj 806 113 s SHfreq;
#X obj 73 412 r SHfreq;
#X obj 7 325 tabwrite~ rhythmSample;
#X obj 7 27 hip~ 1500;
#X obj 7 52 hip~ 1500;
#X obj 173 205 delay 500;
#X msg 45 251 start 22050;
#X msg 65 231 start 44100;
#X msg 85 210 start 66150;
#X msg 241 57 0 \, 22049 500;
#X msg 382 56 22050 \, 44099 500;
#X msg 523 56 44100 \, 66149 500;
#X msg 664 54 66150 \, 88199 500;
#X obj 814 31 expr $f1 / 3 + 100;
#X obj 7 486 *~ 2;
#X obj 7 461 lop~;
#X obj 806 88 expr $f1 * 5 + 500;
#X obj 15 85 threshold~ 0.25 10 -0.25 1000;
#X obj 183 369 tabwrite~ rhythmSample;
#X msg 183 346 set rhythmSample;
#X msg 183 323 start 0;
#X obj 183 282 inlet resetArray;
#X obj 183 303 bng 15 250 50 0 empty empty empty 17 7 0 10 -262144
-1 -1;
#X msg -33 -41 stop;
#X obj -38 -436 threshold~ 1 3000 0.1 1000;
#X obj -38 -413 bng 15 250 50 0 empty empty empty 17 7 0 10 -262144
-1 -1;
#X floatatom -38 -346 5 0 0 0 - - -;
#X obj -38 -460 *~ 5;
#X text 27 -344 menos 52 sec;
#X obj -37 -390 metro 52000;
#X msg -40 -258 open c1.wav \, 1;
#X msg -23 -231 open c2.wav \, 1;
#X msg -9 -206 open c3.wav \, 1;
#X msg 7 -176 open c6.wav \, 1;
#X msg 27 -138 open c7.wav \, 1;
#X msg 39 -108 open galleta.wav \, 1;
#X msg 40 -79 open m1.wav \, 1;
#X msg 82 -47 open Silla-pasos.wav \, 1;
#X obj -39 -317 sel 0 1 2 3 4 5 6 7;
#X obj 4 -31 readsf~ 8;
#X obj -37 -369 random 8;
#X obj 6 2 *~ 5;
#X connect 0 0 94 0;
#X connect 2 0 4 0;
#X connect 2 0 10 0;
#X connect 4 0 69 0;
#X connect 5 0 6 0;
#X connect 6 0 7 0;
#X connect 7 0 19 0;
#X connect 8 0 76 0;
#X connect 8 0 24 0;
#X connect 8 0 27 0;
#X connect 9 0 69 0;
#X connect 10 0 11 0;
#X connect 10 0 12 0;
#X connect 11 0 10 1;
#X connect 12 0 13 0;
#X connect 13 0 14 0;
#X connect 13 1 15 0;
#X connect 13 2 16 0;
#X connect 13 3 17 0;
#X connect 14 0 9 0;
#X connect 14 0 72 0;
#X connect 15 0 73 0;
#X connect 15 0 72 0;
#X connect 16 0 74 0;
#X connect 16 0 72 0;
#X connect 17 0 75 0;
#X connect 17 0 72 0;
#X connect 18 0 69 0;
#X connect 20 0 22 0;
#X connect 21 0 8 0;
#X connect 22 0 82 0;
#X connect 23 0 7 1;
#X connect 24 0 25 0;
#X connect 25 0 23 0;
#X connect 26 0 80 0;
#X connect 26 0 83 0;
#X connect 27 0 66 0;
#X connect 28 0 29 0;
#X connect 29 0 30 0;
#X connect 30 0 32 0;
#X connect 31 0 77 0;
#X connect 31 0 34 0;
#X connect 31 0 36 0;
#X connect 33 0 30 1;
#X connect 34 0 35 0;
#X connect 35 0 33 0;
#X connect 36 0 65 0;
#X connect 37 0 38 0;
#X connect 38 0 39 0;
#X connect 39 0 41 0;
#X connect 40 0 78 0;
#X connect 40 0 43 0;
#X connect 40 0 46 0;
#X connect 42 0 39 1;
#X connect 43 0 44 0;
#X connect 44 0 42 0;
#X connect 45 0 43 1;
#X connect 46 0 45 0;
#X connect 47 0 48 0;
#X connect 48 0 49 0;
#X connect 49 0 51 0;
#X connect 50 0 79 0;
#X connect 50 0 53 0;
#X connect 50 0 56 0;
#X connect 52 0 49 1;
#X connect 53 0 54 0;
#X connect 54 0 52 0;
#X connect 55 0 53 1;
#X connect 56 0 55 0;
#X connect 57 0 31 0;
#X connect 58 0 40 0;
#X connect 59 0 50 0;
#X connect 61 0 56 1;
#X connect 62 0 46 1;
#X connect 63 0 36 1;
#X connect 64 0 27 1;
#X connect 65 0 34 1;
#X connect 66 0 24 1;
#X connect 68 0 82 1;
#X connect 70 0 71 0;
#X connect 71 0 69 0;
#X connect 71 0 84 0;
#X connect 72 0 18 0;
#X connect 73 0 69 0;
#X connect 74 0 69 0;
#X connect 75 0 69 0;
#X connect 76 0 5 0;
#X connect 77 0 28 0;
#X connect 78 0 37 0;
#X connect 79 0 47 0;
#X connect 80 0 60 0;
#X connect 81 0 1 0;
#X connect 82 0 81 0;
#X connect 83 0 67 0;
#X connect 84 0 2 0;
#X connect 86 0 85 0;
#X connect 87 0 85 0;
#X connect 88 0 89 0;
#X connect 89 0 87 0;
#X connect 89 0 86 0;
#X connect 90 0 106 0;
#X connect 91 0 92 0;
#X connect 92 0 96 0;
#X connect 93 0 105 0;
#X connect 94 0 91 0;
#X connect 96 0 107 0;
#X connect 97 0 106 0;
#X connect 98 0 106 0;
#X connect 99 0 106 0;
#X connect 100 0 106 0;
#X connect 101 0 106 0;
#X connect 102 0 106 0;
#X connect 103 0 106 0;
#X connect 104 0 106 0;
#X connect 105 0 97 0;
#X connect 105 1 98 0;
#X connect 105 2 99 0;
#X connect 105 3 100 0;
#X connect 105 4 101 0;
#X connect 105 5 102 0;
#X connect 105 6 103 0;
#X connect 105 7 104 0;
#X connect 106 0 108 0;
#X connect 106 1 108 0;
#X connect 106 2 108 0;
#X connect 106 3 108 0;
#X connect 106 4 108 0;
#X connect 106 5 108 0;
#X connect 106 6 108 0;
#X connect 106 7 108 0;
#X connect 106 8 108 1;
#X connect 107 0 93 0;
#X connect 108 0 70 0;
#X restore -228 451 pd rhythmSampler;
#N canvas 243 303 671 336 sequencer 1;
#X obj 18 44 inlet clock;
#X obj 65 178 f;
#X obj 93 178 + 1;
#X obj 150 201 f;
#X obj 178 201 + 1;
#X obj 65 226 select 0;
#X obj 150 246 select 0;
#X msg 65 256 0;
#X obj 113 44 inlet reset;
#X obj 150 270 outlet gate;
#X obj 65 201 mod 32;
#X obj 65 278 s reset;
#X obj 159 177 r reset;
#X obj 18 66 s clock;
#X obj 65 153 r clock;
#X obj 150 153 r clock;
#X obj 150 224 mod;
#X obj 207 202 bng 15 250 50 0 empty empty empty 17 7 0 10 -262144
-1 -1;
#X obj 265 201 f;
#X obj 293 201 + 1;
#X obj 265 270 outlet gate;
#X obj 274 177 r reset;
#X obj 265 153 r clock;
#X obj 265 224 mod;
#X obj 322 202 bng 15 250 50 0 empty empty empty 17 7 0 10 -262144
-1 -1;
#X obj 380 201 f;
#X obj 408 201 + 1;
#X obj 380 270 outlet gate;
#X obj 389 177 r reset;
#X obj 380 153 r clock;
#X obj 380 224 mod;
#X obj 437 202 bng 15 250 50 0 empty empty empty 17 7 0 10 -262144
-1 -1;
#X obj 496 201 f;
#X obj 524 201 + 1;
#X obj 496 270 outlet gate;
#X obj 505 177 r reset;
#X obj 496 153 r clock;
#X obj 496 224 mod;
#X obj 553 202 bng 15 250 50 0 empty empty empty 17 7 0 10 -262144
-1 -1;
#X obj 207 224 random 5;
#X obj 322 224 random 5;
#X obj 437 224 random 5;
#X obj 553 224 random 5;
#X obj 113 66 s start;
#X obj 15 226 r start;
#X obj 265 246 select 1;
#X obj 380 246 select 2;
#X obj 496 246 select 3;
#X obj 203 44 inlet intensity;
#X obj 203 126 s inten;
#X obj 178 224 +;
#X obj 293 224 +;
#X obj 408 224 +;
#X obj 524 224 +;
#X obj 555 177 r inten;
#X obj 209 177 r inten;
#X obj 324 177 r inten;
#X obj 439 177 r inten;
#X obj 203 85 * -1;
#X obj 203 105 + 10;
#X obj 203 66 / 150;
#X text 17 8 Rhythm sequencer - takes incoming clock in 16ths and divides
down to randomly selected divisions. Resets;
#X connect 0 0 13 0;
#X connect 1 0 2 0;
#X connect 1 0 10 0;
#X connect 2 0 1 1;
#X connect 3 0 4 0;
#X connect 3 0 16 0;
#X connect 4 0 3 1;
#X connect 5 0 7 0;
#X connect 6 0 9 0;
#X connect 7 0 11 0;
#X connect 8 0 43 0;
#X connect 10 0 5 0;
#X connect 12 0 3 0;
#X connect 12 0 17 0;
#X connect 14 0 1 0;
#X connect 15 0 3 0;
#X connect 16 0 6 0;
#X connect 17 0 39 0;
#X connect 18 0 19 0;
#X connect 18 0 23 0;
#X connect 19 0 18 1;
#X connect 21 0 18 0;
#X connect 21 0 24 0;
#X connect 22 0 18 0;
#X connect 23 0 45 0;
#X connect 24 0 40 0;
#X connect 25 0 26 0;
#X connect 25 0 30 0;
#X connect 26 0 25 1;
#X connect 28 0 25 0;
#X connect 28 0 31 0;
#X connect 29 0 25 0;
#X connect 30 0 46 0;
#X connect 31 0 41 0;
#X connect 32 0 33 0;
#X connect 32 0 37 0;
#X connect 33 0 32 1;
#X connect 35 0 32 0;
#X connect 35 0 38 0;
#X connect 36 0 32 0;
#X connect 37 0 47 0;
#X connect 38 0 42 0;
#X connect 39 0 50 0;
#X connect 40 0 51 0;
#X connect 41 0 52 0;
#X connect 42 0 53 0;
#X connect 44 0 7 0;
#X connect 45 0 20 0;
#X connect 46 0 27 0;
#X connect 47 0 34 0;
#X connect 48 0 60 0;
#X connect 50 0 16 1;
#X connect 51 0 23 1;
#X connect 52 0 30 1;
#X connect 53 0 37 1;
#X connect 54 0 53 1;
#X connect 55 0 50 1;
#X connect 56 0 51 1;
#X connect 57 0 52 1;
#X connect 58 0 59 0;
#X connect 59 0 49 0;
#X connect 60 0 58 0;
#X restore -210 411 pd sequencer;
#X obj -135 430 r intens;
#N canvas 0 22 1366 614 drums 0;
#X obj 36 342 *~;
#X obj 81 325 vline~;
#X obj 36 318 osc~;
#X obj 36 290 vline~;
#X obj 36 421 outlet~ audioOut;
#X obj 16 -149 inlet trig;
#X obj 100 -125 f;
#X obj 128 -125 + 1;
#X obj 100 -150 r trig;
#X obj 16 -127 s trig;
#X obj 100 -102 mod 16;
#X obj 22 19 f;
#X obj 50 19 + 1;
#X obj 22 88 spigot;
#X obj 294 -150 inlet intense;
#X obj 294 -106 int;
#X obj 294 -128 / 100;
#X obj 80 71 == 1;
#X obj 22 62 select 0;
#X obj 294 -85 s intensNum;
#X obj 80 46 r intensNum;
#X obj 22 40 mod 16;
#X obj 22 -7 r trig;
#X obj 22 183 s pitchDecay;
#X obj 30 160 s ampDecay;
#X obj 36 268 r pitchDecay;
#X obj 81 303 r ampDecay;
#X msg 100 -60 0;
#X obj 100 -40 s resetDrum;
#X obj 66 -7 r resetDrum;
#X obj 185 -150 inlet start;
#X obj 165 19 f;
#X obj 193 19 + 1;
#X obj 165 88 spigot;
#X obj 165 62 select 0;
#X obj 223 46 r intensNum;
#X obj 165 -7 r trig;
#X obj 165 183 s pitchDecay;
#X obj 173 160 s ampDecay;
#X obj 209 -7 r resetDrum;
#X obj 223 71 == 2;
#X obj 165 40 mod 8;
#X obj 309 19 f;
#X obj 337 19 + 1;
#X obj 309 88 spigot;
#X obj 309 62 select 0;
#X obj 367 46 r intensNum;
#X obj 309 -7 r trig;
#X obj 309 183 s pitchDecay;
#X obj 317 160 s ampDecay;
#X obj 353 -7 r resetDrum;
#X obj 366 71 == 3;
#X obj 309 40 mod 6;
#X msg 317 113 1 2 \, 0 300 2;
#X obj 462 20 f;
#X obj 490 20 + 1;
#X obj 462 89 spigot;
#X obj 462 63 select 0;
#X obj 520 47 r intensNum;
#X obj 462 -6 r trig;
#X obj 462 184 s pitchDecay;
#X obj 470 161 s ampDecay;
#X obj 506 -6 r resetDrum;
#X obj 462 41 mod 6;
#X obj 605 20 f;
#X obj 633 20 + 1;
#X obj 605 89 spigot;
#X obj 605 63 select 0;
#X obj 663 47 r intensNum;
#X obj 605 -6 r trig;
#X obj 605 184 s pitchDecay;
#X obj 613 161 s ampDecay;
#X obj 649 -6 r resetDrum;
#X msg 613 114 1 2 \, 0 300 2;
#X obj 519 72 == 4;
#X obj 662 72 == 4;
#X obj 605 41 mod 9;
#X msg 470 114 1 2 \, 0 300 2;
#X obj 912 18 f;
#X obj 940 18 + 1;
#X obj 912 87 spigot;
#X obj 912 61 select 0;
#X obj 970 45 r intensNum;
#X obj 912 -8 r trig;
#X obj 912 182 s pitchDecay;
#X obj 920 159 s ampDecay;
#X obj 956 -8 r resetDrum;
#X obj 912 39 mod 4;
#X obj 1059 16 f;
#X obj 1087 16 + 1;
#X obj 1059 85 spigot;
#X obj 1059 59 select 0;
#X obj 1117 43 r intensNum;
#X obj 1059 -10 r trig;
#X obj 1059 180 s pitchDecay;
#X obj 1067 157 s ampDecay;
#X obj 1103 -10 r resetDrum;
#X obj 1059 37 mod 4;
#X obj 1200 17 f;
#X obj 1228 17 + 1;
#X obj 1200 86 spigot;
#X obj 1200 60 select 0;
#X obj 1258 44 r intensNum;
#X obj 1200 -9 r trig;
#X obj 1200 182 s pitchDecay;
#X obj 1208 158 s ampDecay;
#X obj 1244 -9 r resetDrum;
#X obj 1200 38 mod 11;
#X obj 325 265 f;
#X obj 353 265 + 1;
#X obj 325 334 spigot;
#X obj 325 308 select 0;
#X obj 383 292 r intensNum;
#X obj 325 239 r trig;
#X obj 325 429 s pitchDecay;
#X obj 333 406 s ampDecay;
#X obj 369 239 r resetDrum;
#X obj 325 286 mod 4;
#X obj 466 266 f;
#X obj 494 266 + 1;
#X obj 466 335 spigot;
#X obj 466 309 select 0;
#X obj 524 293 r intensNum;
#X obj 466 240 r trig;
#X obj 466 431 s pitchDecay;
#X obj 474 407 s ampDecay;
#X obj 510 240 r resetDrum;
#X obj 622 268 f;
#X obj 650 268 + 1;
#X obj 622 337 spigot;
#X obj 622 311 select 0;
#X obj 680 295 r intensNum;
#X obj 622 242 r trig;
#X obj 622 432 s pitchDecay;
#X obj 630 409 s ampDecay;
#X obj 666 242 r resetDrum;
#X obj 622 289 mod 4;
#X obj 763 269 f;
#X obj 791 269 + 1;
#X obj 763 338 spigot;
#X obj 763 312 select 0;
#X obj 821 296 r intensNum;
#X obj 763 243 r trig;
#X obj 763 434 s pitchDecay;
#X obj 771 410 s ampDecay;
#X obj 807 243 r resetDrum;
#X msg 771 363 0.5 2 \, 0 300 2;
#X obj 906 266 f;
#X obj 934 266 + 1;
#X obj 906 335 spigot;
#X obj 906 309 select 0;
#X obj 964 293 r intensNum;
#X obj 906 240 r trig;
#X obj 906 430 s pitchDecay;
#X obj 914 407 s ampDecay;
#X obj 950 240 r resetDrum;
#X obj 906 287 mod 4;
#X obj 1047 267 f;
#X obj 1075 267 + 1;
#X obj 1047 336 spigot;
#X obj 1047 310 select 0;
#X obj 1105 294 r intensNum;
#X obj 1047 241 r trig;
#X obj 1047 432 s pitchDecay;
#X obj 1055 408 s ampDecay;
#X obj 1091 241 r resetDrum;
#X obj 1047 288 mod 3;
#X obj 962 318 == 10;
#X obj 1104 319 == 10;
#X obj 679 320 == 9;
#X obj 820 321 == 9;
#X obj 523 318 == 8;
#X obj 382 317 == 8;
#X obj 1257 69 == 7;
#X obj 1116 68 == 7;
#X obj 971 73 == 6;
#X floatatom 258 -88 5 0 0 0 - - -;
#X obj 758 19 f;
#X obj 786 19 + 1;
#X obj 758 88 spigot;
#X obj 758 62 select 0;
#X obj 816 46 r intensNum;
#X obj 758 -7 r trig;
#X obj 758 183 s pitchDecay;
#X obj 766 160 s ampDecay;
#X obj 802 -7 r resetDrum;
#X obj 758 40 mod 4;
#X obj 817 74 == 5;
#X msg 1055 361 0.5 2 \, 0 300 2;
#X obj 36 381 *~ 0.7;
#X msg 165 136 180 0 \, 43 7;
#X msg 309 136 150 0 \, 43 7;
#X msg 462 137 150 0 \, 43 7;
#X msg 605 137 150 0 \, 43 7;
#X msg 912 135 180 0 \, 43 20;
#X msg 1059 133 180 0 \, 43 15;
#X msg 1200 134 180 0 \, 43 15;
#X msg 914 360 1.1 2 \, 0 300 2;
#X msg 630 362 1.1 2 \, 0 300 2;
#X msg 474 360 0.5 2 \, 0 300 2;
#X msg 333 359 1 2 \, 0 300 2;
#X msg 1208 111 0.5 2 \, 0 300 2;
#X msg 766 111 1 2 \, 0 300 2;
#X msg 920 110 1 2 \, 0 300 2;
#X msg 1067 110 1 2 \, 0 300 2;
#X msg 325 382 180 0 \, 43 20;
#X msg 466 383 180 0 \, 43 10;
#X obj 466 287 mod 6;
#X msg 763 386 180 0 \, 43 10;
#X msg 624 385 180 0 \, 43 20;
#X msg 908 383 180 0 \, 43 20;
#X msg 1047 384 180 0 \, 43 20;
#X obj 763 290 mod 7;
#X msg 22 136 200 0 \, 43 5;
#X msg 185 -128 0;
#X obj 100 -80 select 1;
#X msg 758 136 180 0 \, 43 10;
#X obj 202 364 r ampDecay;
#X obj 202 390 bng 15 250 50 0 empty empty empty 17 7 0 10 -262144
-1 -1;
#X obj 202 418 outlet kickTrig;
#X msg 30 113 0.5 2 \, 0 500 2;
#X msg 173 113 0.75 2 \, 0 400 2;
#X connect 0 0 189 0;
#X connect 1 0 0 1;
#X connect 2 0 0 0;
#X connect 3 0 2 0;
#X connect 5 0 9 0;
#X connect 6 0 7 0;
#X connect 6 0 10 0;
#X connect 7 0 6 1;
#X connect 8 0 6 0;
#X connect 10 0 215 0;
#X connect 11 0 12 0;
#X connect 11 0 21 0;
#X connect 12 0 11 1;
#X connect 13 0 213 0;
#X connect 13 0 220 0;
#X connect 14 0 16 0;
#X connect 15 0 19 0;
#X connect 15 0 176 0;
#X connect 16 0 15 0;
#X connect 17 0 13 1;
#X connect 18 0 13 0;
#X connect 20 0 17 0;
#X connect 21 0 18 0;
#X connect 22 0 11 0;
#X connect 25 0 3 0;
#X connect 26 0 1 0;
#X connect 27 0 28 0;
#X connect 29 0 11 0;
#X connect 30 0 214 0;
#X connect 31 0 32 0;
#X connect 31 0 41 0;
#X connect 32 0 31 1;
#X connect 33 0 190 0;
#X connect 33 0 221 0;
#X connect 34 0 33 0;
#X connect 35 0 40 0;
#X connect 36 0 31 0;
#X connect 39 0 31 0;
#X connect 40 0 33 1;
#X connect 41 0 34 0;
#X connect 42 0 43 0;
#X connect 42 0 52 0;
#X connect 43 0 42 1;
#X connect 44 0 191 0;
#X connect 44 0 53 0;
#X connect 45 0 44 0;
#X connect 46 0 51 0;
#X connect 47 0 42 0;
#X connect 50 0 42 0;
#X connect 51 0 44 1;
#X connect 52 0 45 0;
#X connect 53 0 49 0;
#X connect 54 0 55 0;
#X connect 54 0 63 0;
#X connect 55 0 54 1;
#X connect 56 0 192 0;
#X connect 56 0 77 0;
#X connect 57 0 56 0;
#X connect 58 0 74 0;
#X connect 59 0 54 0;
#X connect 62 0 54 0;
#X connect 63 0 57 0;
#X connect 64 0 65 0;
#X connect 64 0 76 0;
#X connect 65 0 64 1;
#X connect 66 0 193 0;
#X connect 66 0 73 0;
#X connect 67 0 66 0;
#X connect 68 0 75 0;
#X connect 69 0 64 0;
#X connect 72 0 64 0;
#X connect 73 0 71 0;
#X connect 74 0 56 1;
#X connect 75 0 66 1;
#X connect 76 0 67 0;
#X connect 77 0 61 0;
#X connect 78 0 79 0;
#X connect 78 0 87 0;
#X connect 79 0 78 1;
#X connect 80 0 194 0;
#X connect 80 0 203 0;
#X connect 81 0 80 0;
#X connect 82 0 175 0;
#X connect 83 0 78 0;
#X connect 86 0 78 0;
#X connect 87 0 81 0;
#X connect 88 0 89 0;
#X connect 88 0 97 0;
#X connect 89 0 88 1;
#X connect 90 0 195 0;
#X connect 90 0 204 0;
#X connect 91 0 90 0;
#X connect 92 0 174 0;
#X connect 93 0 88 0;
#X connect 96 0 88 0;
#X connect 97 0 91 0;
#X connect 98 0 99 0;
#X connect 98 0 107 0;
#X connect 99 0 98 1;
#X connect 100 0 196 0;
#X connect 100 0 201 0;
#X connect 101 0 100 0;
#X connect 102 0 173 0;
#X connect 103 0 98 0;
#X connect 106 0 98 0;
#X connect 107 0 101 0;
#X connect 108 0 109 0;
#X connect 108 0 117 0;
#X connect 109 0 108 1;
#X connect 110 0 205 0;
#X connect 110 0 200 0;
#X connect 111 0 110 0;
#X connect 112 0 172 0;
#X connect 113 0 108 0;
#X connect 116 0 108 0;
#X connect 117 0 111 0;
#X connect 118 0 119 0;
#X connect 118 0 207 0;
#X connect 119 0 118 1;
#X connect 120 0 206 0;
#X connect 120 0 199 0;
#X connect 121 0 120 0;
#X connect 122 0 171 0;
#X connect 123 0 118 0;
#X connect 126 0 118 0;
#X connect 127 0 128 0;
#X connect 127 0 136 0;
#X connect 128 0 127 1;
#X connect 129 0 209 0;
#X connect 129 0 198 0;
#X connect 130 0 129 0;
#X connect 131 0 169 0;
#X connect 132 0 127 0;
#X connect 135 0 127 0;
#X connect 136 0 130 0;
#X connect 137 0 138 0;
#X connect 137 0 212 0;
#X connect 138 0 137 1;
#X connect 139 0 208 0;
#X connect 139 0 146 0;
#X connect 140 0 139 0;
#X connect 141 0 170 0;
#X connect 142 0 137 0;
#X connect 145 0 137 0;
#X connect 146 0 144 0;
#X connect 147 0 148 0;
#X connect 147 0 156 0;
#X connect 148 0 147 1;
#X connect 149 0 210 0;
#X connect 149 0 197 0;
#X connect 150 0 149 0;
#X connect 151 0 167 0;
#X connect 152 0 147 0;
#X connect 155 0 147 0;
#X connect 156 0 150 0;
#X connect 157 0 158 0;
#X connect 157 0 166 0;
#X connect 158 0 157 1;
#X connect 159 0 211 0;
#X connect 159 0 188 0;
#X connect 160 0 159 0;
#X connect 161 0 168 0;
#X connect 162 0 157 0;
#X connect 165 0 157 0;
#X connect 166 0 160 0;
#X connect 167 0 149 1;
#X connect 168 0 159 1;
#X connect 169 0 129 1;
#X connect 170 0 139 1;
#X connect 171 0 120 1;
#X connect 172 0 110 1;
#X connect 173 0 100 1;
#X connect 174 0 90 1;
#X connect 175 0 80 1;
#X connect 177 0 178 0;
#X connect 177 0 186 0;
#X connect 178 0 177 1;
#X connect 179 0 216 0;
#X connect 179 0 202 0;
#X connect 180 0 179 0;
#X connect 181 0 187 0;
#X connect 182 0 177 0;
#X connect 185 0 177 0;
#X connect 186 0 180 0;
#X connect 187 0 179 1;
#X connect 188 0 164 0;
#X connect 189 0 4 0;
#X connect 190 0 37 0;
#X connect 191 0 48 0;
#X connect 192 0 60 0;
#X connect 193 0 70 0;
#X connect 194 0 84 0;
#X connect 195 0 94 0;
#X connect 196 0 104 0;
#X connect 197 0 154 0;
#X connect 198 0 134 0;
#X connect 199 0 125 0;
#X connect 200 0 115 0;
#X connect 201 0 105 0;
#X connect 202 0 184 0;
#X connect 203 0 85 0;
#X connect 204 0 95 0;
#X connect 205 0 114 0;
#X connect 206 0 124 0;
#X connect 207 0 121 0;
#X connect 208 0 143 0;
#X connect 209 0 133 0;
#X connect 210 0 153 0;
#X connect 211 0 163 0;
#X connect 212 0 140 0;
#X connect 213 0 23 0;
#X connect 214 0 6 0;
#X connect 215 0 27 0;
#X connect 216 0 183 0;
#X connect 217 0 218 0;
#X connect 218 0 219 0;
#X connect 220 0 24 0;
#X connect 221 0 38 0;
#X coords 0 614 1 613 150 100 0;
#X restore -332 560 pd drums;
#N canvas 535 181 557 652 scale 0;
#X obj 421 384 send scale;
#X msg 421 362 set major;
#X obj 32 306 table minor 5;
#X msg 12 359 set minor;
#X obj 438 309 table major 5;
#X obj 421 309 bng 15 250 50 0 empty empty empty 17 7 0 10 -262144
-1 -1;
#X obj 12 307 bng 15 250 50 0 empty empty empty 17 7 0 10 -262144 -1
-1;
#X obj 159 423 bng 15 250 50 0 empty empty empty 17 7 0 10 -262144
-1 -1;
#X obj 100 216 s transpose;
#X obj 100 191 +;
#X obj 159 499 send scale;
#X obj 12 382 send scale;
#X obj 12 36 int;
#X obj 12 61 s scaleInput;
#X obj 12 14 inlet scale;
#X obj 12 245 select 0 1 2 3 4 5 6 7 8 9;
#X obj 110 14 inlet shakeTranpose;
#X obj 286 382 send scale;
#X obj 286 307 bng 15 250 50 0 empty empty empty 17 7 0 10 -262144
-1 -1;
#X obj 150 306 bng 15 250 50 0 empty empty empty 17 7 0 10 -262144
-1 -1;
#X obj 41 530 bng 15 250 50 0 empty empty empty 17 7 0 10 -262144 -1
-1;
#X obj 40 608 send scale;
#X obj 150 382 send scale;
#X msg 286 326 \; majPent 0 2 4 7 9;
#X obj 303 307 table majPent 5;
#X msg 286 360 set majPent;
#X msg 159 442 \; minPent 0 3 5 7 10;
#X msg 159 477 set minPent;
#X obj 178 421 table minPent 5;
#X obj 59 530 table dorian 5;
#X msg 40 586 set dorian;
#X msg 41 551 \; dorian 0 2 3 5 7;
#X obj 296 496 send scale;
#X obj 296 421 bng 15 250 50 0 empty empty empty 17 7 0 10 -262144
-1 -1;
#X obj 308 605 send scale;
#X obj 308 530 bng 15 250 50 0 empty empty empty 17 7 0 10 -262144
-1 -1;
#X obj 326 530 table major7 5;
#X msg 309 583 set major7;
#X obj 24 499 send scale;
#X obj 24 424 bng 15 250 50 0 empty empty empty 17 7 0 10 -262144 -1
-1;
#X obj 42 424 table minor7 5;
#X msg 25 443 \; minor7 0 3 7 10 12;
#X msg 25 477 set minor7;
#X msg 309 549 \; major7 0 4 7 11 12;
#X obj 313 421 table 6th 5;
#X msg 296 440 \; 6th 0 4 7 9 12;
#X msg 296 474 set 6th;
#X obj 170 306 table manGong 5;
#X msg 150 325 \; manGong 0 3 5 8 10;
#X msg 150 359 set manGong;
#X obj 175 606 send scale;
#X obj 175 531 bng 15 250 50 0 empty empty empty 17 7 0 10 -262144
-1 -1;
#X obj 192 531 table ritusen 5;
#X msg 175 584 set ritusen;
#X msg 175 550 \; ritusen 0 2 5 7 9;
#X msg 12 325 \; minor 0 3 5 7 12;
#X msg 421 328 \; major 0 4 7 7 12;
#X obj 110 94 bng 15 250 50 0 empty empty empty 17 7 0 10 -262144 -1
-1;
#X obj 130 94 bng 15 250 50 0 empty empty empty 17 7 0 10 -262144 -1
-1;
#X obj 150 94 bng 15 250 50 0 empty empty empty 17 7 0 10 -262144 -1
-1;
#X obj 170 94 bng 15 250 50 0 empty empty empty 17 7 0 10 -262144 -1
-1;
#X obj 359 14 inlet intensity;
#X obj 359 60 int;
#X obj 277 14 inlet clock;
#X obj 277 37 random;
#X obj 277 62 * 12;
#X obj 359 37 / 333.333;
#X obj 359 83 == 3;
#X floatatom 359 160 5 0 0 0 - - -;
#X obj 359 106 * 12;
#X obj 277 174 -;
#X obj 110 34 bng 15 250 50 0 empty empty empty 17 7 0 10 -262144 -1
-1;
#X obj 329 52 + 1;
#X msg 100 168 60;
#X obj 277 87 + 48;
#X msg 150 136 0;
#X msg 179 136 2;
#X obj 189 94 bng 15 250 50 0 empty empty empty 17 7 0 10 -262144 -1
-1;
#X msg 237 136 7;
#X msg 208 136 5;
#X obj 207 94 bng 15 250 50 0 empty empty empty 17 7 0 10 -262144 -1
-1;
#X obj 110 71 select 0 1 2 3 4 5;
#X msg 121 136 -2;
#X obj 110 51 random 7;
#X msg 92 136 -5;
#X connect 1 0 0 0;
#X connect 3 0 11 0;
#X connect 5 0 56 0;
#X connect 5 0 1 0;
#X connect 6 0 55 0;
#X connect 6 0 3 0;
#X connect 7 0 26 0;
#X connect 7 0 27 0;
#X connect 9 0 8 0;
#X connect 12 0 13 0;
#X connect 12 0 15 0;
#X connect 14 0 12 0;
#X connect 15 0 6 0;
#X connect 15 1 7 0;
#X connect 15 2 51 0;
#X connect 15 3 18 0;
#X connect 15 4 33 0;
#X connect 16 0 71 0;
#X connect 18 0 23 0;
#X connect 18 0 25 0;
#X connect 19 0 48 0;
#X connect 19 0 49 0;
#X connect 20 0 31 0;
#X connect 20 0 30 0;
#X connect 23 0 25 0;
#X connect 25 0 17 0;
#X connect 26 0 27 0;
#X connect 27 0 10 0;
#X connect 30 0 21 0;
#X connect 31 0 30 0;
#X connect 33 0 45 0;
#X connect 33 0 46 0;
#X connect 35 0 43 0;
#X connect 35 0 37 0;
#X connect 37 0 34 0;
#X connect 39 0 41 0;
#X connect 39 0 42 0;
#X connect 41 0 42 0;
#X connect 42 0 38 0;
#X connect 43 0 37 0;
#X connect 45 0 46 0;
#X connect 46 0 32 0;
#X connect 48 0 49 0;
#X connect 49 0 22 0;
#X connect 51 0 54 0;
#X connect 51 0 53 0;
#X connect 53 0 50 0;
#X connect 54 0 53 0;
#X connect 55 0 3 0;
#X connect 56 0 1 0;
#X connect 57 0 84 0;
#X connect 58 0 82 0;
#X connect 59 0 75 0;
#X connect 60 0 76 0;
#X connect 61 0 66 0;
#X connect 62 0 67 0;
#X connect 62 0 72 0;
#X connect 63 0 64 0;
#X connect 64 0 65 0;
#X connect 65 0 74 0;
#X connect 66 0 62 0;
#X connect 67 0 69 0;
#X connect 68 0 70 1;
#X connect 69 0 68 0;
#X connect 70 0 9 0;
#X connect 71 0 83 0;
#X connect 72 0 64 1;
#X connect 73 0 9 0;
#X connect 74 0 70 0;
#X connect 75 0 9 1;
#X connect 75 0 73 0;
#X connect 76 0 73 0;
#X connect 76 0 9 1;
#X connect 77 0 79 0;
#X connect 78 0 9 1;
#X connect 78 0 73 0;
#X connect 79 0 73 0;
#X connect 79 0 9 1;
#X connect 80 0 78 0;
#X connect 81 0 57 0;
#X connect 81 1 58 0;
#X connect 81 2 59 0;
#X connect 81 3 60 0;
#X connect 81 4 77 0;
#X connect 81 5 80 0;
#X connect 81 6 59 0;
#X connect 82 0 9 1;
#X connect 82 0 73 0;
#X connect 83 0 81 0;
#X connect 84 0 9 1;
#X connect 84 0 73 0;
#X restore -196 597 pd scale;
#X obj -242 171 loadbang;
#X obj -242 223 vsl 30 60 0 4 0 0 empty empty SCALE 0 -9 1 10 -204800
-1 -1 900 1;
#X msg -242 189 0;
#X obj -151 577 r intens;
#X obj -474 443 s 16th;
#X obj -363 410 r 16th;
#X obj -166 558 r 16th;
#X obj -104 242 s shakeIt;
#X obj -242 292 s scaleSelect;
#X obj -196 520 r scaleSelect;
#X obj -232 135 s reality;
#X obj 27 684 r reality;
#X obj -484 131 tgl 15 0 empty empty empty 17 7 0 10 -262144 -1 -1
0 1;
#X obj -484 171 select 0 1;
#X obj -480 191 loadbang;
#X obj 18 213 send toGUI;
#X msg -349 189 0;
#X obj 1 91 bng 15 250 50 0 empty empty empty 17 7 0 10 -262144 -1
-1;
#X msg 12 143 list /intensity 0.2;
#X obj 1 70 loadbang;
#X obj -484 254 s stop;
#X obj -452 385 r stop;
#X obj -475 538 r 16th;
#X obj -210 391 r 16th;
#X obj -332 540 r 16th;
#X obj -141 391 r intens;
#X obj -287 540 r intens;
#X obj -403 288 s tempo;
#X obj -430 404 r tempo;
#X obj -60 521 catch~ ch1;
#X obj -50 542 catch~ ch2;
#X obj -39 562 catch~ ch3;
#X obj -28 582 catch~ ch4;
#X obj -17 602 catch~ ch5;
#X obj -6 623 catch~ ch6;
#X obj 5 643 catch~ ch7;
#X obj -363 470 throw~ ch1;
#X obj -312 451 throw~ ch2;
#X obj -475 619 throw~ ch3;
#X obj -453 599 throw~ ch4;
#X obj -430 579 throw~ ch7;
#X obj -228 471 throw~ ch5;
#X obj -332 600 throw~ ch6;
#X text -476 348 Clock Module;
#X text -197 501 Scale Select;
#X text -364 391 Audio Looper;
#X text -478 500 FM Synth w. Sequencer;
#X text -231 334 Rhythm Seq and Sampler;
#X text -334 501 Kick Drum Generator;
#X text -61 503 Audio Mixer and FX;
#X text -486 52 GUI input and output for control of application;
#X obj -453 273 s play;
#X obj -474 366 r play;
#X obj -176 370 r play;
#X obj -310 520 r play;
#X obj -234 71 * 1.2;
#X obj -234 90 - 0.1;
#X obj -444 463 s 8bar;
#X obj 2 433 r 8bar;
#X text 0 409 Looping sampler;
#X obj -459 482 s 4bar;
#X obj -181 539 r 4bar;
#X obj -228 350 r shakeIt;
#X obj -287 581 s kTrig;
#N canvas 672 22 625 614 logg 0;
#X obj 376 461 textfile;
#X obj 26 100 bng 15 250 50 0 empty empty empty 17 7 0 10 -262144 -1
-1;
#X obj 25 3 loadbang;
#X obj 12 148 makefilename %c;
#X msg 12 125 9;
#X obj 12 170 s tab;
#X obj 172 168 r tab;
#X obj 201 149 r tab;
#X obj 230 168 r tab;
#X obj 258 149 r tab;
#X obj 287 168 r tab;
#X obj 215 39 inlet tempoLog;
#X obj 244 61 inlet intenLogg;
#X obj 273 82 inlet scaleLogg;
#X obj 301 39 inlet realLogg;
#X obj 187 17 inlet onOffLogg;
#X obj 330 61 inlet shakeLogg;
#X obj 316 148 r tab;
#X obj 54 406 r tab;
#X obj 83 387 r tab;
#X obj 112 406 r tab;
#X obj 140 387 r tab;
#X obj 169 406 r tab;
#X obj 198 386 r tab;
#X obj 26 278 bng 15 250 50 0 empty empty empty 17 7 0 10 -262144 -1
-1;
#X msg 40 320 symbol Number;
#X msg 69 299 symbol OnOff;
#X msg 97 341 symbol Tempo;
#X msg 155 362 symbol Scale;
#X msg 183 299 symbol Reality;
#X msg 212 341 symbol Shake;
#X msg 126 320 symbol Intensity;
#X obj 144 238 s totext;
#X obj 26 516 s totext;
#X obj 376 370 r totext;
#X obj 391 399 r write;
#X msg 391 428 write data.csv;
#X obj 47 100 f;
#X obj 76 100 + 1;
#X obj 47 120 s number;
#X obj 158 39 r number;
#X obj 26 194 s write;
#X obj 32 475 bng 15 250 50 0 empty empty empty 17 7 0 10 -262144 -1
-1;
#X obj 32 495 s write;
#X obj 26 341 delay 100;
#X obj 26 385 bng 15 250 50 0 empty empty empty 17 7 0 10 -262144 -1
-1;
#X obj 215 128 int;
#X obj 187 128 int;
#X obj 330 128 int;
#X obj 158 128 int;
#X obj 244 104 / 10;
#X obj 244 128 int;
#X obj 273 104 * 10;
#X obj 273 128 int;
#X obj 301 104 * 100;
#X obj 301 128 int;
#X obj 187 105 * 100;
#X obj 330 104 * 100;
#X obj 26 428 pack f s s s s s s s s s s s s s s;
#X obj 227 406 r tab;
#X obj 144 190 pack f f s f s f s f s f s f s f s;
#X obj 345 168 r tab;
#X msg 26 451 add \$2 \$3 \$4 \$5 \$6 \$7 \$8 \$9 \$10 \$11 \$12 \$13
\$14 \$15;
#X msg 144 213 add \$2 \$3 \$4 \$5 \$6 \$7 \$8 \$9 \$10 \$11 \$12 \$13
\$14 \$15;
#X obj 26 35 del 500;
#X obj 26 56 del 500;
#X obj 26 77 metro 1000;
#X connect 1 0 41 0;
#X connect 3 0 5 0;
#X connect 4 0 3 0;
#X connect 6 0 60 2;
#X connect 7 0 60 4;
#X connect 8 0 60 6;
#X connect 9 0 60 8;
#X connect 10 0 60 10;
#X connect 11 0 46 0;
#X connect 12 0 50 0;
#X connect 13 0 52 0;
#X connect 14 0 54 0;
#X connect 15 0 56 0;
#X connect 16 0 57 0;
#X connect 17 0 60 12;
#X connect 18 0 58 2;
#X connect 19 0 58 4;
#X connect 20 0 58 6;
#X connect 21 0 58 8;
#X connect 22 0 58 10;
#X connect 23 0 58 12;
#X connect 24 0 25 0;
#X connect 24 0 26 0;
#X connect 24 0 31 0;
#X connect 24 0 29 0;
#X connect 24 0 27 0;
#X connect 24 0 28 0;
#X connect 24 0 30 0;
#X connect 24 0 44 0;
#X connect 25 0 58 1;
#X connect 26 0 58 3;
#X connect 27 0 58 5;
#X connect 28 0 58 9;
#X connect 29 0 58 11;
#X connect 30 0 58 13;
#X connect 31 0 58 7;
#X connect 34 0 0 0;
#X connect 35 0 36 0;
#X connect 36 0 0 0;
#X connect 37 0 38 0;
#X connect 37 0 39 0;
#X connect 38 0 37 1;
#X connect 40 0 49 0;
#X connect 42 0 43 0;
#X connect 44 0 45 0;
#X connect 45 0 58 0;
#X connect 46 0 60 5;
#X connect 47 0 60 3;
#X connect 48 0 60 13;
#X connect 49 0 60 1;
#X connect 50 0 51 0;
#X connect 51 0 60 7;
#X connect 52 0 53 0;
#X connect 53 0 60 9;
#X connect 54 0 55 0;
#X connect 55 0 60 11;
#X connect 56 0 47 0;
#X connect 57 0 48 0;
#X connect 58 0 62 0;
#X connect 59 0 58 14;
#X connect 60 0 63 0;
#X connect 61 0 60 14;
#X connect 62 0 33 0;
#X connect 62 0 42 0;
#X connect 63 0 32 0;
#X connect 64 0 24 0;
#X connect 64 0 65 0;
#X connect 65 0 66 0;
#X connect 66 0 1 0;
#X connect 66 0 37 0;
#X restore 6 378 pd logg;
#X obj 13 276 r tempo;
#X obj 29 318 r scaleSelect;
#X obj 37 339 r reality;
#X obj 45 359 r shakeIt;
#X obj 21 297 r intens;
#X obj -476 151 s onOff;
#X obj 6 256 r onOff;
#X msg -97 214 0;
#X obj -107 134 bng 15 250 50 0 empty empty empty 17 7 0 10 -262144
-1 -1;
#X msg -107 152 1;
#X obj -97 195 bng 15 250 50 0 empty empty empty 17 7 0 10 -262144
-1 -1;
#X obj -97 173 del 1000;
#N canvas 12 23 1428 602 ambientLevel 0;
#X obj 65 234 tgl 15 0 empty empty empty 17 7 0 10 -262144 -1 -1 1
1;
#X floatatom 139 322 8 0 0 0 - - -;
#X obj 139 253 spigot;
#X obj 139 275 f;
#X floatatom 172 226 5 0 0 0 - - -;
#X floatatom 79 62 5 0 0 0 - - -;
#X obj 139 297 int;
#X obj 139 230 line;
#X obj 65 211 loadbang;
#X obj 79 15 inlet~ audioIn;
#X obj 140 352 outlet rmsSlowFall;
#X obj 422 383 send toGUI;
#X msg 406 361 list /intensity \$1;
#X obj 410 308 spigot;
#X obj 445 230 r autoInt;
#X floatatom 261 330 5 0 0 0 - - -;
#X obj 65 255 metro 100;
#X obj 164 276 - 1;
#X obj 153 190 >;
#X obj 79 40 env~ 256 11025;
#X msg 74 129 \$1 2500;
#X obj 261 308 / 1000;
#X obj 79 92 * 8;
#X connect 0 0 16 0;
#X connect 1 0 10 0;
#X connect 2 0 3 0;
#X connect 3 0 6 0;
#X connect 3 0 17 0;
#X connect 3 0 18 1;
#X connect 4 0 2 1;
#X connect 5 0 22 0;
#X connect 6 0 1 0;
#X connect 6 0 21 0;
#X connect 7 0 2 0;
#X connect 8 0 0 0;
#X connect 9 0 19 0;
#X connect 12 0 11 0;
#X connect 13 0 12 0;
#X connect 14 0 13 1;
#X connect 15 0 13 0;
#X connect 16 0 3 0;
#X connect 17 0 3 1;
#X connect 18 0 4 0;
#X connect 19 0 5 0;
#X connect 20 0 7 0;
#X connect 21 0 15 0;
#X connect 22 0 20 0;
#X connect 22 0 18 0;
#X restore -222 711 pd ambientLevel;
#X obj -222 682 adc~;
#X obj -222 788 s intens;
#X obj -484 111 route /playStop /tempo /intensity /scale /reality /autoInt
/resetSamples;
#X obj -169 138 s autoInt;
#X obj -189 732 r autoInt;
#X obj -222 752 spigot;
#X msg 18 167 list /scale 2;
#X msg 2 191 list /reality 0.5 0.5;
#X msg 15 120 list /tempo 0.3;
#X obj -349 342 spigot;
#X obj -314 264 r autoInt;
#X obj -314 284 select 0 1;
#X msg -313 311 1;
#X msg -283 311 0;
#X obj -316 240 loadbang;
#X floatatom -402 325 5 0 0 0 - - -;
#X text -86 751 reactive m.i.r \; Oliveros et al. \, 2015-18 (inspired
by previous doctoral developments and by http://www.sebsongs.com/reactiscape/)
;
#X connect 2 0 33 0;
#X connect 2 1 89 0;
#X connect 2 2 86 0;
#X connect 2 3 10 0;
#X connect 3 0 65 0;
#X connect 3 1 66 0;
#X connect 4 0 80 0;
#X connect 5 0 49 0;
#X connect 7 0 67 0;
#X connect 7 1 68 0;
#X connect 7 2 69 0;
#X connect 8 0 9 0;
#X connect 9 0 14 0;
#X connect 11 0 7 2;
#X connect 12 0 3 1;
#X connect 13 0 6 7;
#X connect 14 0 56 0;
#X connect 14 0 122 0;
#X connect 15 0 45 0;
#X connect 16 0 116 0;
#X connect 18 0 7 1;
#X connect 19 0 20 0;
#X connect 20 0 109 0;
#X connect 21 0 22 0;
#X connect 22 0 14 0;
#X connect 23 0 16 0;
#X connect 24 0 70 0;
#X connect 25 0 24 1;
#X connect 25 1 24 2;
#X connect 25 2 24 3;
#X connect 25 3 24 4;
#X connect 26 0 24 5;
#X connect 27 0 71 0;
#X connect 27 1 92 0;
#X connect 29 0 31 0;
#X connect 30 0 37 0;
#X connect 31 0 30 0;
#X connect 32 0 28 3;
#X connect 34 0 3 0;
#X connect 35 0 28 2;
#X connect 38 0 28 0;
#X connect 40 0 6 8;
#X connect 41 0 42 0;
#X connect 41 0 99 0;
#X connect 42 0 5 0;
#X connect 42 1 4 0;
#X connect 43 0 5 0;
#X connect 45 0 16 0;
#X connect 46 0 115 0;
#X connect 46 0 47 0;
#X connect 46 0 113 0;
#X connect 46 0 114 0;
#X connect 47 0 44 0;
#X connect 48 0 46 0;
#X connect 50 0 2 1;
#X connect 51 0 7 0;
#X connect 52 0 25 0;
#X connect 53 0 27 0;
#X connect 54 0 25 2;
#X connect 55 0 27 2;
#X connect 57 0 2 2;
#X connect 58 0 6 0;
#X connect 59 0 6 1;
#X connect 60 0 6 2;
#X connect 61 0 6 3;
#X connect 62 0 6 4;
#X connect 63 0 6 5;
#X connect 64 0 6 6;
#X connect 81 0 2 0;
#X connect 82 0 25 1;
#X connect 83 0 27 1;
#X connect 84 0 85 0;
#X connect 87 0 1 0;
#X connect 90 0 28 1;
#X connect 91 0 24 0;
#X connect 94 0 93 1;
#X connect 95 0 93 3;
#X connect 96 0 93 4;
#X connect 97 0 93 5;
#X connect 98 0 93 2;
#X connect 100 0 93 0;
#X connect 101 0 36 0;
#X connect 102 0 103 0;
#X connect 102 0 105 0;
#X connect 103 0 36 0;
#X connect 104 0 101 0;
#X connect 105 0 104 0;
#X connect 106 0 112 0;
#X connect 107 0 106 0;
#X connect 107 1 106 0;
#X connect 109 0 41 0;
#X connect 109 1 21 0;
#X connect 109 2 23 0;
#X connect 109 3 30 0;
#X connect 109 4 39 0;
#X connect 109 5 110 0;
#X connect 109 6 102 0;
#X connect 111 0 112 1;
#X connect 112 0 108 0;
#X connect 113 0 44 0;
#X connect 114 0 44 0;
#X connect 115 0 44 0;
#X connect 116 0 17 0;
#X connect 117 0 118 0;
#X connect 118 0 119 0;
#X connect 118 1 120 0;
#X connect 119 0 116 1;
#X connect 120 0 116 1;
#X connect 121 0 119 0;
