#N canvas 51 397 439 451 10;
#X obj -197 -73 tgl 25 0 empty empty DSP 3 12 1 9 -24198 -1 -1 0 1
;
#X msg -195 -42 \; pd dsp \$1;
#X floatatom -198 284 6 0 0 0 - - -, f 6;
#X floatatom -182 259 6 0 0 0 - - -, f 6;
#X text -141 252 dB;
#X text -157 282 dB;
#X text -164 40 dB;
#X text -155 60 dB;
#X text -132 58 peak-level;
#X text -134 37 rms-level;
#X text -120 251 peak-level;
#X text -137 281 rms-level;
#X floatatom -224 40 7 -110 20 0 - - -, f 7;
#X floatatom -213 61 7 -110 20 0 - - -, f 7;
#N canvas 236 62 699 530 edit 0;
#X obj 37 222 f;
#X msg 15 201 bang;
#X floatatom 53 200 3 50 88 0 - - -, f 3;
#X floatatom 88 222 3 0 37 0 - - -, f 3;
#X obj 37 245 pack 0 0;
#X text 115 222 y-label;
#X text 81 200 x-label;
#X obj 292 313 f;
#X msg 270 292 bang;
#X floatatom 308 291 3 -10 10 0 - - -, f 3;
#X floatatom 343 313 3 -10 10 0 - - -, f 3;
#X obj 292 336 pack 0 0;
#X obj 304 435 f;
#X msg 282 414 bang;
#X floatatom 320 413 3 20 140 0 - - -, f 3;
#X floatatom 355 435 3 150 200 0 - - -, f 3;
#X obj 304 458 pack 0 0;
#X text 336 291 x-delta;
#X text 370 313 y-delta;
#X text 348 413 x-position;
#X text 382 435 y-position;
#X obj 57 337 f;
#X msg 35 316 bang;
#X floatatom 73 315 3 0 2 0 - - -, f 3;
#X floatatom 108 337 3 8 36 0 - - -, f 3;
#X obj 57 360 pack 0 0;
#X text 101 315 font;
#X text 137 337 height;
#X floatatom 471 106 1 0 1 0 - - -, f 1;
#X msg 52 131 \; foo7_rcv color \$1 \$2;
#X msg 37 270 \; foo7_rcv label_pos \$1 \$2;
#X msg 57 386 \; foo7_rcv label_font \$1 \$2;
#X msg 37 427 \; foo7_rcv label blabla;
#X msg 292 361 \; foo7_rcv delta \$1 \$2;
#X msg 304 483 \; foo7_rcv pos \$1 \$2;
#X msg 469 23 \; foo7_rcv receive foo7a_rcv;
#X msg 469 60 \; foo7a_rcv receive foo7_rcv;
#X text 492 106 display scale;
#X msg 471 132 \; foo7_rcv scale \$1;
#X obj 279 193 f;
#X msg 257 172 bang;
#X floatatom 295 171 3 8 50 0 - - -, f 3;
#X floatatom 330 193 3 110 200 0 - - -, f 3;
#X obj 279 216 pack 0 0;
#X text 323 171 width;
#X text 357 193 height;
#X msg 279 241 \; foo7_rcv size \$1 \$2;
#X msg 37 463 \; foo7_rcv label vu-meter;
#X obj 52 79 f;
#X msg 29 31 bang;
#X floatatom 68 29 3 0 29 0 - - -, f 3;
#X floatatom 103 47 3 0 29 0 - - -, f 3;
#X text 96 29 background;
#X text 131 48 label-color;
#X msg 290 25 back;
#X msg 290 49 label;
#X msg 252 25 bang;
#N canvas 15 207 606 448 RGB_____________ 0;
#X obj 97 56 inlet;
#X obj 262 53 inlet;
#X obj 339 55 inlet;
#X obj 405 56 inlet;
#X obj 97 270 bang;
#X msg 77 295 0;
#X msg 104 295 1;
#X obj 146 268 bang;
#X msg 132 295 0;
#X msg 160 295 1;
#X obj 265 313 spigot;
#X obj 312 313 spigot;
#X obj 249 385 outlet;
#X text 93 33 select;
#X text 267 28 red;
#X text 337 30 green;
#X text 409 30 blue;
#X obj 405 102 t b f;
#X obj 339 160 +;
#X obj 339 185 t b f;
#X obj 339 216 +;
#X obj 296 385 outlet;
#X obj 28 180 loadbang;
#X obj 296 361 f;
#X obj 249 361 f;
#X obj 262 79 * -65536;
#X obj 339 80 * -256;
#X obj 405 80 * -1;
#X obj 339 247 - 1;
#X obj 97 135 route back label bang;
#X obj 235 168 t b b b;
#X connect 0 0 29 0;
#X connect 1 0 25 0;
#X connect 2 0 26 0;
#X connect 3 0 27 0;
#X connect 4 0 5 0;
#X connect 4 0 6 0;
#X connect 5 0 11 1;
#X connect 6 0 10 1;
#X connect 7 0 8 0;
#X connect 7 0 9 0;
#X connect 8 0 10 1;
#X connect 9 0 11 1;
#X connect 10 0 24 1;
#X connect 11 0 23 1;
#X connect 17 0 18 0;
#X connect 17 1 18 1;
#X connect 18 0 19 0;
#X connect 19 0 20 0;
#X connect 19 1 20 1;
#X connect 20 0 28 0;
#X connect 22 0 6 0;
#X connect 23 0 21 0;
#X connect 24 0 12 0;
#X connect 25 0 20 0;
#X connect 26 0 18 0;
#X connect 27 0 17 0;
#X connect 28 0 11 0;
#X connect 28 0 10 0;
#X connect 29 0 4 0;
#X connect 29 1 7 0;
#X connect 29 2 30 0;
#X connect 30 0 24 0;
#X connect 30 1 23 0;
#X connect 30 2 28 0;
#X restore 290 86 pd RGB_____________;
#X floatatom 332 55 3 0 255 0 - - -, f 3;
#X floatatom 375 55 3 0 255 0 - - -, f 3;
#X floatatom 418 56 3 0 255 0 - - -, f 3;
#X text 39 3 preset-colors;
#X text 301 0 RGB-colors;
#X text 332 37 red;
#X text 368 36 green;
#X text 416 36 blue;
#X obj 52 104 pack 0 0;
#X connect 0 0 4 0;
#X connect 1 0 0 0;
#X connect 2 0 0 1;
#X connect 3 0 4 1;
#X connect 4 0 30 0;
#X connect 7 0 11 0;
#X connect 8 0 7 0;
#X connect 9 0 7 1;
#X connect 10 0 11 1;
#X connect 11 0 33 0;
#X connect 12 0 16 0;
#X connect 13 0 12 0;
#X connect 14 0 12 1;
#X connect 15 0 16 1;
#X connect 16 0 34 0;
#X connect 21 0 25 0;
#X connect 22 0 21 0;
#X connect 23 0 21 1;
#X connect 24 0 25 1;
#X connect 25 0 31 0;
#X connect 28 0 38 0;
#X connect 39 0 43 0;
#X connect 40 0 39 0;
#X connect 41 0 39 1;
#X connect 42 0 43 1;
#X connect 43 0 46 0;
#X connect 48 0 66 0;
#X connect 49 0 48 0;
#X connect 50 0 48 1;
#X connect 51 0 66 1;
#X connect 54 0 57 0;
#X connect 55 0 57 0;
#X connect 56 0 57 0;
#X connect 57 0 66 0;
#X connect 57 1 66 1;
#X connect 58 0 57 1;
#X connect 59 0 57 2;
#X connect 60 0 57 3;
#X connect 66 0 29 0;
#X restore -158 146 pd edit;
#N canvas 147 336 290 235 source 0;
#X obj 40 95 random 102;
#X obj 40 171 - 101;
#X obj 40 205 pack 0 0;
#X obj 40 45 metro 300;
#X obj 40 69 t b b;
#X obj 133 95 random 20;
#X obj 40 117 t f f;
#X obj 91 147 +;
#X obj 91 172 - 101;
#X obj 40 21 inlet;
#X obj 40 230 outlet;
#X connect 0 0 6 0;
#X connect 1 0 2 0;
#X connect 2 0 10 0;
#X connect 3 0 4 0;
#X connect 4 0 0 0;
#X connect 4 1 5 0;
#X connect 5 0 7 1;
#X connect 6 0 1 0;
#X connect 6 1 7 0;
#X connect 7 0 8 0;
#X connect 8 0 2 1;
#X connect 9 0 3 0;
#X restore -232 -5 pd source;
#X obj -172 18 s fff;
#X obj -231 99 vu 15 120 empty empty -1 -8 0 10 -66577 -1 1 0;
#X obj -284 99 vu 15 120 empty empty -1 -8 0 10 -66577 -1 1 0;
#X floatatom -274 288 6 0 0 0 - - -, f 6;
#X floatatom -266 258 6 0 0 0 - - -, f 6;
#N canvas 41 31 1412 804 META 1;
#X obj 230 -292 adc~;
#N canvas 0 22 796 453 (subpatch) 0;
#X array array1 100 float 3;
#A 0 0.0418025 0.0450355 0.0466119 0.0442404 0.0405746 0.0370039 0.0339773
0.0305564 0.024987 0.0196287 0.0175881 0.0178075 0.0185385 0.0181806
0.0150286 0.0107829 0.00684442 0.00174892 -0.00355864 -0.00557105 -0.00327719
0.000682794 0.00350541 0.00480842 0.00620614 0.00784457 0.00798243
0.00729145 0.00673671 0.00607038 0.00618943 0.00679642 0.00677899 0.00491004
0.000537507 -0.00411421 -0.00778107 -0.0110682 -0.0132362 -0.0131114
-0.0121463 -0.0132544 -0.0164769 -0.0211897 -0.0271166 -0.0326548 -0.037178
-0.0393165 -0.0385192 -0.0373346 -0.0356322 -0.0328424 -0.0310882 -0.0309253
-0.0314086 -0.0318546 -0.0329594 -0.035722 -0.0394843 -0.0433337 -0.0455728
-0.0444063 -0.0417756 -0.0400154 -0.0385006 -0.036638 -0.0336108 -0.0295498
-0.0260223 -0.0233375 -0.0227363 -0.0243092 -0.0255511 -0.0249593 -0.0214256
-0.0168783 -0.0153734 -0.0166127 -0.017693 -0.0181836 -0.0187544 -0.0192018
-0.0216785 -0.0262361 -0.028261 -0.026146 -0.021526 -0.0159019 -0.0101334
-0.00435666 0.0012663 0.00480964 0.00480418 0.00262698 0.000785149
0.00177607 0.0031704 0.000730661 -0.00477812 -0.010528;
#X coords 0 1 99 -1 200 140 1;
#X restore 478 -280 graph;
#X obj 351 -163 tabwrite~ array1;
#X obj 351 -205 bng 15 250 50 0 empty empty empty 17 7 0 10 -262144
-1 -1;
#X text 427 -183 msec.;
#X obj 351 -184 metro 160;
#X obj 212 -152 fiddle~;
#X floatatom 212 -128 5 0 0 0 - - -, f 5;
#X floatatom 261 -127 5 0 0 0 - - -, f 5;
#X floatatom 309 -127 5 0 0 0 - - -, f 5;
#X floatatom 361 -129 5 0 0 0 - - -, f 5;
#X obj 381 314 delwrite~ delayLeft 4000;
#X obj 569 314 delread~ delayLeft 1000;
#N canvas 0 23 345 160 META 0;
#X msg 56 49 bang;
#X msg 12 20 bang;
#X floatatom 12 111 0 0 0 0 - - -;
#X text 53 18 Click here to reset;
#X obj 12 80 cputime;
#X text 106 49 Click here to get elapsed CPU time;
#X connect 0 0 4 1;
#X connect 1 0 4 0;
#X connect 4 0 2 0;
#X restore 730 385 pd META;
#X obj 1008 -176 +~;
#X obj 894 94 +~;
#X obj 894 -194 +~;
#X obj 910 -102 +~;
#X obj 908 29 +~;
#X obj 894 -55 +~;
#X obj 907 181 +~;
#X obj 893 299 +~;
#X obj 894 -247 osc~ 34.6478;
#X obj 908 -223 osc~ 35;
#X obj 910 -156 osc~ 69.2957;
#X obj 924 -132 osc~ 70;
#X obj 908 -32 osc~ 138.591;
#X obj 923 -11 osc~ 139;
#X obj 907 118 osc~ 277.183;
#X obj 925 152 osc~ 278;
#X obj 1024 -98 +~;
#X obj 1024 52 +~;
#X obj 225 -178 *~ 1;
#X text 1086 133 ALL Hz in D♭;
#X text 1087 154 [Hz= 190.533 / 1.618];
#X obj 566 441 dac~ 1 2;
#X obj 964 413 phasor~ 5;
#X floatatom 411 54 0 0 0 0 - - -;
#X floatatom 370 152 0 0 0 0 - - -;
#X obj 370 197 pack 0 100;
#X obj 370 220 line~;
#X obj 356 240 *~;
#X obj 370 174 dbtorms;
#X msg 507 82 bang;
#X obj 492 146 env~ 32768;
#X floatatom 492 168 0 0 0 0 - - -;
#X text 404 34 1 sec;
#X text 381 16 dB after;
#X text 500 63 clear;
#X obj 356 113 rev1~;
#X obj 1009 -246 osc~ 5540.37;
#X obj 1024 -221 osc~ 5550;
#X obj 1024 -151 osc~ 11080.7;
#X obj 1039 -124 osc~ 11090;
#X obj 1024 -1 osc~ 22170.5;
#X obj 1039 26 osc~ 22180;
#X obj 575 279 delread~ delayRight 500;
#X obj 385 281 delwrite~ delayRight 4500;
#X obj 840 109 vsl 15 128 0 279 0 0 empty empty empty 0 -9 0 10 -262144
-1 -1 10476 1;
#X obj 840 64 * 3;
#X floatatom 840 86 5 0 0 0 - - -, f 5;
#X obj 840 -91 vsl 15 128 0 140 0 0 empty empty empty 0 -9 0 10 -262144
-1 -1 10438 1;
#X floatatom 840 -114 5 0 0 0 - - -, f 5;
#X obj 839 -149 * 1.5;
#X obj 812 -222 vsl 15 128 0 70 0 0 empty empty empty 0 -9 0 10 -262144
-1 -1 12700 1;
#X floatatom 812 -245 5 0 0 0 - - -, f 5;
#X obj 812 -267 * 1;
#X obj 964 438 *~ 0.5;
#X obj 758 -71 vsl 15 128 0 5551 0 0 empty empty empty 0 -9 0 10 -262144
-1 -1 11449 1;
#X floatatom 758 -94 5 0 0 0 - - -, f 5;
#X obj 758 -121 * 71;
#X obj 744 110 vsl 15 128 0 5551 0 0 empty empty empty 0 -9 0 10 -262144
-1 -1 12700 1;
#X floatatom 744 87 5 0 0 0 - - -, f 5;
#X obj 744 65 * 100;
#X connect 0 0 6 0;
#X connect 0 0 32 0;
#X connect 0 0 49 0;
#X connect 0 1 49 0;
#X connect 0 1 6 0;
#X connect 3 0 5 0;
#X connect 5 0 2 0;
#X connect 6 0 7 0;
#X connect 6 1 8 0;
#X connect 6 2 9 0;
#X connect 6 3 10 0;
#X connect 7 0 37 0;
#X connect 7 0 38 0;
#X connect 7 0 59 0;
#X connect 7 0 63 0;
#X connect 9 0 73 0;
#X connect 9 0 70 0;
#X connect 9 0 66 0;
#X connect 10 0 63 0;
#X connect 10 0 59 0;
#X connect 12 0 35 0;
#X connect 14 0 36 0;
#X connect 14 0 49 0;
#X connect 15 0 21 0;
#X connect 15 0 36 0;
#X connect 16 0 19 0;
#X connect 16 0 36 0;
#X connect 17 0 19 1;
#X connect 18 0 15 1;
#X connect 19 0 15 0;
#X connect 19 0 36 0;
#X connect 20 0 21 1;
#X connect 20 0 36 0;
#X connect 21 0 49 0;
#X connect 22 0 16 0;
#X connect 23 0 16 1;
#X connect 24 0 17 0;
#X connect 25 0 17 1;
#X connect 26 0 18 0;
#X connect 27 0 18 1;
#X connect 28 0 20 0;
#X connect 29 0 20 1;
#X connect 30 0 36 0;
#X connect 30 0 49 0;
#X connect 31 0 36 0;
#X connect 32 0 2 0;
#X connect 36 0 67 0;
#X connect 37 0 49 1;
#X connect 38 0 42 0;
#X connect 39 0 40 0;
#X connect 40 0 41 1;
#X connect 41 0 11 0;
#X connect 41 0 57 0;
#X connect 42 0 39 0;
#X connect 43 0 49 2;
#X connect 44 0 45 0;
#X connect 49 0 41 0;
#X connect 49 0 44 0;
#X connect 50 0 14 0;
#X connect 51 0 14 1;
#X connect 52 0 30 0;
#X connect 53 0 30 1;
#X connect 54 0 31 0;
#X connect 55 0 31 1;
#X connect 56 0 35 1;
#X connect 58 0 28 0;
#X connect 58 0 29 0;
#X connect 59 0 60 0;
#X connect 60 0 58 0;
#X connect 61 0 26 0;
#X connect 61 0 27 0;
#X connect 62 0 61 0;
#X connect 63 0 62 0;
#X connect 64 0 25 0;
#X connect 64 0 24 0;
#X connect 65 0 64 0;
#X connect 66 0 65 0;
#X connect 67 0 49 0;
#X connect 68 0 50 0;
#X connect 68 0 51 0;
#X connect 69 0 68 0;
#X connect 70 0 69 0;
#X connect 71 0 52 0;
#X connect 71 0 53 0;
#X connect 72 0 71 0;
#X connect 73 0 72 0;
#X restore -76 -39 pd META;
#X text -305 -109 |imaterialNoSuch. Miguel Oliveros \, Madrid \, Macedonia
2018;
#X connect 0 0 1 0;
#X connect 0 0 15 0;
#X connect 12 0 17 0;
#X connect 13 0 17 0;
#X connect 15 0 16 0;
#X connect 15 0 17 0;
#X connect 15 0 18 0;
#X connect 17 0 3 0;
#X connect 17 0 2 0;
#X connect 18 0 20 0;
#X connect 18 0 19 0;
